<svg width="32" height="32" viewBox="0 0 32 32" fill="none" xmlns="http://www.w3.org/2000/svg">
<path fill-rule="evenodd" clip-rule="evenodd" d="M1.33301 3.67928C1.33301 3.12001 1.79527 2.66663 2.3655 2.66663H3.37656C5.28583 2.66663 6.89631 4.06102 7.13313 5.91916L7.40692 8.06747H26.9234C28.3962 8.06747 29.5243 9.35225 29.3059 10.7808L27.8297 20.4326C27.5518 22.2502 25.9598 23.5949 24.0858 23.5949H10.9316C9.0576 23.5949 7.46563 22.2502 7.18764 20.4326L5.47439 9.23035L5.47094 9.20573L5.08409 6.17037C4.97645 5.32576 4.24441 4.69194 3.37656 4.69194H2.3655C1.79527 4.69194 1.33301 4.23856 1.33301 3.67928ZM7.69438 10.0928L9.22978 20.1322C9.35613 20.9584 10.0798 21.5696 10.9316 21.5696H24.0858C24.9376 21.5696 25.6613 20.9584 25.7876 20.1322L27.2637 10.4804C27.2949 10.2763 27.1338 10.0928 26.9234 10.0928H7.69438Z" fill="#1C1B1C"/>
<path d="M25.7686 27.9831C25.7686 28.7288 25.1523 29.3333 24.392 29.3333C23.6317 29.3333 23.0153 28.7288 23.0153 27.9831C23.0153 27.2374 23.6317 26.6329 24.392 26.6329C25.1523 26.6329 25.7686 27.2374 25.7686 27.9831Z" fill="#1C1B1C"/>
<path d="M12.0021 27.9831C12.0021 28.7288 11.3857 29.3333 10.6254 29.3333C9.86512 29.3333 9.24877 28.7288 9.24877 27.9831C9.24877 27.2374 9.86512 26.6329 10.6254 26.6329C11.3857 26.6329 12.0021 27.2374 12.0021 27.9831Z" fill="#1C1B1C"/>
</svg>
