<svg width="32" height="32" viewBox="0 0 32 32" fill="none" xmlns="http://www.w3.org/2000/svg">
<path fill-rule="evenodd" clip-rule="evenodd" d="M15.1715 7.84829C12.8923 5.47314 9.05432 5.4392 6.56443 7.87183C6.55655 7.87954 6.54854 7.88711 6.5404 7.89456C4.12474 10.1072 4.08905 13.8103 6.56443 16.2287L6.57093 16.2351L15.9169 25.5292L25.4362 16.2287C25.4441 16.221 25.4521 16.2135 25.4602 16.206C27.8759 13.9934 27.9116 10.2903 25.4362 7.87183C22.9597 5.45225 19.1027 5.45225 16.6262 7.87183C16.4306 8.06295 16.167 8.16794 15.8939 8.16352C15.6209 8.15911 15.3608 8.04565 15.1715 7.84829ZM15.929 5.7575C12.7932 3.20516 8.16422 3.44801 5.14483 6.38682C1.82436 9.44065 1.8628 14.5038 5.12968 17.699C5.1308 17.7001 5.13191 17.7011 5.13302 17.7022L15.1883 27.7018C15.5856 28.0969 16.2254 28.0997 16.6262 27.7082L26.8562 17.7134C30.1774 14.6585 30.1377 9.59322 26.8676 6.39834C23.8302 3.43074 19.1963 3.21712 15.929 5.7575Z" fill="#1C1B1C"/>
</svg>
