<svg width="10" height="10" viewBox="0 0 10 10" fill="none" xmlns="http://www.w3.org/2000/svg">
<path d="M0.00701904 4.99984C0.00701904 4.80092 0.0860366 4.61016 0.226689 4.46951C0.367341 4.32885 0.558107 4.24984 0.757019 4.24984H4.25002V0.756836C4.25002 0.557924 4.32904 0.367158 4.46969 0.226506C4.61034 0.0858535 4.80111 0.00683594 5.00002 0.00683594C5.19893 0.00683594 5.3897 0.0858535 5.53035 0.226506C5.671 0.367158 5.75002 0.557924 5.75002 0.756836V4.24984H9.24302C9.44193 4.24984 9.6327 4.32885 9.77335 4.46951C9.914 4.61016 9.99302 4.80092 9.99302 4.99984C9.99302 5.19875 9.914 5.38951 9.77335 5.53017C9.6327 5.67082 9.44193 5.74984 9.24302 5.74984H5.75002V9.24284C5.75002 9.44175 5.671 9.63251 5.53035 9.77317C5.3897 9.91382 5.19893 9.99284 5.00002 9.99284C4.80111 9.99284 4.61034 9.91382 4.46969 9.77317C4.32904 9.63251 4.25002 9.44175 4.25002 9.24284V5.74984H0.757019C0.558107 5.74984 0.367341 5.67082 0.226689 5.53017C0.0860366 5.38951 0.00701904 5.19875 0.00701904 4.99984Z" fill="#1C1B1C"/>
</svg>
