<svg width="195" height="40" viewBox="0 0 195 40" fill="none" xmlns="http://www.w3.org/2000/svg">
<path d="M0 29.5718V39.3655C0 39.8654 0.52835 40.1683 0.93211 39.8999L4.82828 37.3105C7.01506 35.8571 8.33932 33.3376 8.33932 30.6305V25.4755H13.6462C19.5079 25.4755 24.2598 20.5126 24.2598 14.3906V13.5988C24.2598 6.60213 18.8291 0 12.1299 0H0V10.4316L4.54872 8.05629L8.33932 2.5138V6.22031C8.33932 6.85378 8.70078 7.4263 9.25828 7.67584L12.1011 8.9483C13.0623 9.3785 13.7071 10.3176 14.1279 11.3174C14.3617 11.8728 14.696 12.4416 15.1624 12.807L18.1949 15.1824L17.834 16.3132C17.5796 17.11 17.0326 17.7687 16.3133 18.1444L15.9205 18.3495V18.899C15.9205 19.8626 15.1033 20.6029 14.1898 20.4666L12.2199 20.1727C11.1521 20.0134 10.0711 19.9735 8.9953 20.0538L8.44927 20.0945C3.68853 20.4497 0 24.587 0 29.5718Z" fill="#0089C4"/>
<path d="M13.4771 13.0238L13.0003 11.9654C12.6349 11.1541 12.0785 11.0712 11.5001 11.2284C11.2231 11.3038 10.8541 11.2284 10.7812 11.2284L10.8614 11.362C11.3873 12.2374 12.081 12.7246 12.8017 12.7246C13.0098 12.7246 13.2153 12.8059 13.4038 12.9627L13.4771 13.0238Z" fill="#0089C4"/>
<path d="M63.3171 14.0021V18.1118H51.5586V14.0021H63.3171ZM54.4616 8.60071H59.2822V29.7659C59.2822 30.4802 59.3799 31.0282 59.5752 31.4098C59.7794 31.7816 60.0457 32.036 60.3742 32.173C60.7026 32.31 61.0666 32.3785 61.4661 32.3785C61.768 32.3785 62.0432 32.354 62.2918 32.3051C62.5492 32.2562 62.7445 32.2122 62.8777 32.173L63.69 36.3268C63.4325 36.4246 63.0641 36.5323 62.5847 36.6497C62.1142 36.7671 61.5371 36.8356 60.8536 36.8552C59.6462 36.8943 58.5587 36.6937 57.591 36.2534C56.6233 35.8033 55.8554 35.1085 55.2872 34.1692C54.7279 33.2298 54.4527 32.0556 54.4616 30.6465V8.60071Z" fill="#0089C4"/>
<path d="M36.0706 36.8599C33.9461 36.8599 32.1114 36.3848 30.5663 35.4345C29.0304 34.4743 27.8486 33.1182 27.0209 31.3661C26.1932 29.6041 25.7793 27.5303 25.7793 25.1446C25.7793 22.7986 26.1932 20.7396 27.0209 18.9677C27.8578 17.1859 29.0258 15.8001 30.5249 14.8102C32.024 13.8104 33.7852 13.3105 35.8085 13.3105C37.1145 13.3105 38.3468 13.5382 39.5056 13.9936C40.6736 14.439 41.7037 15.1319 42.5958 16.0723C43.4971 17.0127 44.2053 18.2105 44.7203 19.6656C45.2353 21.1108 45.4928 22.8332 45.4928 24.8328V26.481H28.1245V22.858H40.7058C40.6966 21.8285 40.4897 20.9129 40.085 20.1111C39.6804 19.2994 39.1148 18.6609 38.3882 18.1956C37.6709 17.7304 36.834 17.4978 35.8775 17.4978C34.8566 17.4978 33.9599 17.765 33.1874 18.2996C32.4148 18.8242 31.8125 19.5171 31.3802 20.3783C30.9571 21.2296 30.741 22.1651 30.7318 23.1847V26.3473C30.7318 27.6738 30.9571 28.8122 31.4078 29.7625C31.8584 30.7028 32.4884 31.4255 33.2977 31.9303C34.1071 32.4252 35.0544 32.6727 36.1396 32.6727C36.8661 32.6727 37.5237 32.5638 38.1123 32.3461C38.7009 32.1184 39.2113 31.7868 39.6436 31.3512C40.0759 30.9157 40.4023 30.3762 40.6231 29.7328L45.2859 30.297C44.9916 31.6234 44.4306 32.7816 43.6029 33.7715C42.7843 34.7515 41.7359 35.5137 40.4575 36.0581C39.1792 36.5927 37.7169 36.8599 36.0706 36.8599Z" fill="#0089C4"/>
<path d="M81.9191 35.8694V31.5652L98.4516 7.549H81.8867V1.57007H107.252V5.87423L90.703 29.8904H107.284V35.8694H81.9191Z" fill="#0089C4"/>
<path d="M150.237 20.7967V35.8696H144.381V10.1451H149.978V14.5163H150.269C150.841 13.076 151.752 11.9316 153.003 11.083C154.265 10.2345 155.823 9.81018 157.678 9.81018C159.393 9.81018 160.886 10.1898 162.159 10.949C163.442 11.7083 164.434 12.808 165.135 14.2483C165.847 15.6886 166.198 17.436 166.187 19.4904V35.8696H160.331V20.4282C160.331 18.7088 159.9 17.3634 159.037 16.392C158.185 15.4207 157.004 14.935 155.494 14.935C154.47 14.935 153.558 15.1694 152.76 15.6384C151.973 16.0961 151.353 16.7605 150.9 17.6314C150.458 18.5022 150.237 19.5573 150.237 20.7967Z" fill="#0089C4"/>
<path d="M183.951 35.8691C181.459 35.8691 179.308 35.3332 177.496 34.2613C175.695 33.1783 174.309 31.6487 173.339 29.6725C172.368 27.6851 171.883 25.346 171.883 22.6552C171.883 20.009 172.368 17.6867 173.339 15.6881C174.32 13.6784 175.69 12.1153 177.448 10.9988C179.205 9.87109 181.271 9.30725 183.643 9.30725C185.175 9.30725 186.62 9.56405 187.979 10.0776C189.348 10.5801 190.556 11.3616 191.602 12.4223C192.659 13.483 193.489 14.834 194.093 16.4753C194.697 18.1054 194.999 20.0481 194.999 22.3035V24.1625H174.633V20.076H189.386C189.375 18.9148 189.132 17.8821 188.658 16.9777C188.183 16.0622 187.52 15.342 186.668 14.8172C185.827 14.2925 184.846 14.0301 183.724 14.0301C182.527 14.0301 181.476 14.3316 180.57 14.9345C179.664 15.5262 178.957 16.3078 178.451 17.2792C177.954 18.2394 177.701 19.2945 177.69 20.4445V24.0117C177.69 25.5079 177.954 26.7918 178.483 27.8637C179.011 28.9244 179.75 29.7394 180.699 30.3089C181.648 30.8671 182.759 31.1463 184.031 31.1463C184.883 31.1463 185.655 31.0234 186.345 30.7778C187.035 30.521 187.633 30.147 188.14 29.6557C188.647 29.1644 189.03 28.5559 189.289 27.8302L194.757 28.4666C194.411 29.9627 193.754 31.2691 192.783 32.3856C191.823 33.4909 190.594 34.3506 189.095 34.9647C187.596 35.5676 185.881 35.8691 183.951 35.8691Z" fill="#0089C4"/>
<path d="M134.062 9.4303C135.395 14.7857 132.396 19.8435 130.73 21.703C130.73 21.703 128.52 18.93 126.287 18.3559C124.144 17.8052 122.479 18.1077 120.733 19.4716C118.567 21.1634 117.74 22.9248 118.365 25.608C118.994 28.3079 120.822 29.9968 123.51 30.6287C126.181 31.2566 128.234 30.3457 130.174 28.3973C130.93 27.6385 132.028 26.7651 133.002 26.037C134.333 25.0424 136.094 24.889 137.621 25.546C138.545 25.9439 139.281 26.6821 139.676 27.6077L140.52 29.5871C140.592 29.7562 140.413 29.937 140.241 29.874C139.279 29.5231 137.106 28.9276 135.728 30.0708C132.185 33.0111 128.508 37.8807 122.399 36.765C116.29 35.6493 113.446 32.1694 112.402 26.7237C111.697 23.0438 113.721 19.0817 114.692 17.4505C114.988 16.9524 115.091 16.36 115.026 15.784C114.81 13.8805 115.021 11.0973 115.179 9.98815L120.733 12.7774C120.733 12.7774 123.087 12.2196 124.62 12.2196C126.154 12.2195 128.508 12.7774 128.508 12.7774L134.062 9.4303Z" fill="#0089C4"/>
</svg>
