<svg width="16" height="20" viewBox="0 0 16 20" fill="none" xmlns="http://www.w3.org/2000/svg">
<path fill-rule="evenodd" clip-rule="evenodd" d="M8 1.53846C6.47514 1.53846 4.42753 1.70582 2.99542 1.8447C2.40117 1.90233 1.93741 2.3731 1.89141 2.96993C1.749 4.81754 1.54839 7.81282 1.54839 10C1.54839 12.1872 1.749 15.1825 1.89141 17.0301C1.93741 17.6269 2.40117 18.0977 2.99542 18.1553C4.42753 18.2942 6.47514 18.4615 8 18.4615C9.52486 18.4615 11.5725 18.2942 13.0046 18.1553C13.5988 18.0977 14.0626 17.6269 14.1086 17.0301C14.251 15.1825 14.4516 12.1872 14.4516 10C14.4516 7.81282 14.251 4.81754 14.1086 2.96993C14.0626 2.3731 13.5988 1.90233 13.0046 1.8447C11.5725 1.70582 9.52486 1.53846 8 1.53846ZM2.84502 0.313513C4.28091 0.17427 6.39353 0 8 0C9.60647 0 11.7191 0.17427 13.155 0.313513C14.5029 0.444226 15.5495 1.51605 15.6525 2.85245C15.7949 4.70071 16 7.74813 16 10C16 12.2519 15.7949 15.2993 15.6525 17.1476C15.5495 18.484 14.5029 19.5558 13.155 19.6865C11.7191 19.8257 9.60647 20 8 20C6.39353 20 4.28091 19.8257 2.84502 19.6865C1.49709 19.5558 0.450547 18.484 0.34754 17.1476C0.205081 15.2993 0 12.2519 0 10C0 7.74813 0.205081 4.70071 0.34754 2.85245C0.450547 1.51605 1.49709 0.444226 2.84502 0.313513Z" fill="#006ACB"/>
<path fill-rule="evenodd" clip-rule="evenodd" d="M6.19355 15.1282C6.19355 14.7034 6.54017 14.359 6.96774 14.359H9.03226C9.45983 14.359 9.80645 14.7034 9.80645 15.1282C9.80645 15.553 9.45983 15.8974 9.03226 15.8974H6.96774C6.54017 15.8974 6.19355 15.553 6.19355 15.1282Z" fill="#006ACB"/>
<path d="M9.03226 4.8718C9.03226 5.43824 8.5701 5.89744 8 5.89744C7.4299 5.89744 6.96774 5.43824 6.96774 4.8718C6.96774 4.30535 7.4299 3.84615 8 3.84615C8.5701 3.84615 9.03226 4.30535 9.03226 4.8718Z" fill="#006ACB"/>
</svg>
