<svg width="14" height="12" viewBox="0 0 14 12" fill="none" xmlns="http://www.w3.org/2000/svg">
<path fill-rule="evenodd" clip-rule="evenodd" d="M6.58557 1.92415C5.44602 0.736572 3.52701 0.719599 2.28206 1.93592C2.27812 1.93977 2.27412 1.94356 2.27005 1.94728C1.06222 3.05359 1.04437 4.90514 2.28206 6.11437L2.28531 6.11755L6.95827 10.7646L11.718 6.11437C11.7219 6.11052 11.7259 6.10673 11.73 6.103C12.9378 4.9967 12.9556 3.14515 11.718 1.93592C10.4797 0.726124 8.55121 0.726124 7.31294 1.93592C7.21513 2.03148 7.08336 2.08397 6.94682 2.08176C6.81028 2.07955 6.68026 2.02282 6.58557 1.92415ZM6.96435 0.878751C5.39646 -0.397418 3.08196 -0.275995 1.57226 1.19341C-0.0879735 2.72033 -0.0687514 5.25189 1.56469 6.84948C1.56525 6.85003 1.5658 6.85057 1.56636 6.85111L6.594 11.8509C6.79266 12.0485 7.11255 12.0499 7.31294 11.8541L12.4279 6.8567C14.0886 5.32925 14.0687 2.79661 12.4337 1.19917C10.9149 -0.284632 8.59799 -0.391439 6.96435 0.878751Z" fill="#1C1B1C"/>
</svg>
