<svg xmlns="http://www.w3.org/2000/svg" viewBox="0 0 100 100" width="24" height="24">
    <g fill="#ed1c24" transform="translate(55,57)">
        <path d="M17.3-27.8c.2-.1.5.1.8.5l14.1 13.8c.8.8.8 2.1 0 2.7L18.1 3.2c-.3.4-.6.5-.8.4-.2-.1-.4-.5-.4-1v-29.5c0-.5.1-.8.4-.9z"/>
        <path d="M-7-50.8h1l1 .4 14.5 14.5c.6.8.4 1.5-.6 1.5h-6c-1 0-1.9.8-1.9 1.9v10.7c0 1-.8 1.9-2.1 1.9h-10.6c-1 0-1.9-.8-1.9-1.9v-10.7c0-1-.8-1.9-1.9-1.9h-6.4c-1 0-1.2-.6-.6-1.4l14.5-14.5 1-.4z"/>
        <path d="M-29.8-28.1c.3.1.4.5.4 1v30.1c0 .5-.2.8-.4.9-.3.1-.6 0-1-.3l-14.3-14.5c-.8-.6-.8-1.9 0-2.7l14.3-14.2c.4-.4.8-.5 1-.4z"/>
        <path d="M-11.7-4.4h10.6c1.3 0 2.1.8 2.1 1.9v11.3c0 1.2.8 2.1 1.9 2.1h5.6c1 0 1.5.6.6 1.2L-4.2 25.5c-.4.4-.9.6-1.5.6s-1-.2-1.5-.6l-14.1-14.2c-.8-.6-.4-1.2.6-1.2h6c1 0 1.9-.8 1.9-2.1V-2.5c0-1 .8-1.9 1.9-1.9z"/>
    </g>
</svg>
