<svg width="20" height="18" viewBox="0 0 20 18" fill="none" xmlns="http://www.w3.org/2000/svg">
<path fill-rule="evenodd" clip-rule="evenodd" d="M10 6.7734C10.3841 6.7734 10.6955 7.07498 10.6955 7.44699V11.0395C10.6955 11.4115 10.3841 11.7131 10 11.7131C9.61591 11.7131 9.30455 11.4115 9.30455 11.0395V7.44699C9.30455 7.07498 9.61591 6.7734 10 6.7734Z" fill="#1C1B1C"/>
<path d="M10.9273 13.7339C10.9273 14.2299 10.5121 14.632 10 14.632C9.48788 14.632 9.07273 14.2299 9.07273 13.7339C9.07273 13.2379 9.48788 12.8358 10 12.8358C10.5121 12.8358 10.9273 13.2379 10.9273 13.7339Z" fill="#1C1B1C"/>
<path fill-rule="evenodd" clip-rule="evenodd" d="M7.93806 1.05924C8.93411 -0.353081 11.0659 -0.353082 12.0619 1.05924C13.2971 2.81057 15.0453 5.35811 16.2149 7.35566C17.4427 9.45257 18.8406 12.3228 19.7707 14.3011C20.5029 15.8582 19.3983 17.6231 17.6389 17.7242C15.4713 17.8488 12.3569 18 10 18C7.64305 18 4.52872 17.8488 2.36111 17.7242C0.601711 17.6231 -0.502851 15.8582 0.229262 14.3011C1.1594 12.3228 2.55728 9.45257 3.78508 7.35566C4.9547 5.35811 6.70292 2.81057 7.93806 1.05924ZM10.9134 1.81913C10.4696 1.18988 9.53037 1.18988 9.08658 1.81913C7.85303 3.56821 6.13356 6.07567 4.99496 8.02025C3.79998 10.0611 2.42375 12.8842 1.49509 14.8594C1.1694 15.5521 1.655 16.3341 2.44348 16.3794C4.60873 16.5038 7.68756 16.6528 10 16.6528C12.3124 16.6528 15.3913 16.5038 17.5565 16.3794C18.345 16.3341 18.8306 15.5521 18.5049 14.8594C17.5762 12.8842 16.2 10.0611 15.005 8.02025C13.8664 6.07567 12.147 3.56821 10.9134 1.81913Z" fill="#1C1B1C"/>
</svg>
