<svg width="128" height="26" viewBox="0 0 128 26" fill="none" xmlns="http://www.w3.org/2000/svg">
<path d="M0 19.2217V25.5876C0 25.9125 0.346814 26.1094 0.611846 25.935L3.16933 24.2518C4.60476 23.3071 5.47401 21.6694 5.47401 19.9098V16.5591H8.95748C12.8052 16.5591 15.9244 13.3332 15.9244 9.35387V8.83921C15.9244 4.29139 12.3596 0 7.9622 0H0V6.78057L2.98583 5.23659L5.47401 1.63397V4.0432C5.47401 4.45496 5.71128 4.8271 6.07723 4.98929L7.9433 5.81639C8.57419 6.09603 8.99746 6.70644 9.27372 7.35628C9.42719 7.71729 9.64658 8.08706 9.95275 8.32455L11.9433 9.86853L11.7064 10.6035C11.5395 11.1215 11.1804 11.5497 10.7082 11.7939L10.4504 11.9272V12.2843C10.4504 12.9107 9.91395 13.3919 9.31436 13.3033L8.02125 13.1123C7.32037 13.0087 6.61081 12.9828 5.90461 13.035L5.54619 13.0614C2.42119 13.2923 0 15.9815 0 19.2217Z" fill="#FFFBFF"/>
<path d="M8.84674 8.46531L8.53377 7.77735C8.29388 7.25 7.92865 7.19616 7.54904 7.29834C7.36716 7.34729 7.12497 7.29834 7.07715 7.29834L7.12979 7.38513C7.47494 7.95415 7.9303 8.27081 8.4034 8.27081C8.53999 8.27081 8.67491 8.32366 8.79858 8.42561L8.84674 8.46531Z" fill="#FFFBFF"/>
<path d="M41.5619 9.10122V11.7726H33.8435V9.10122H41.5619ZM35.7491 5.59033H38.9134V19.3477C38.9134 19.812 38.9775 20.1682 39.1057 20.4162C39.2397 20.6579 39.4145 20.8233 39.6301 20.9123C39.8458 21.0014 40.0847 21.0459 40.3469 21.0459C40.545 21.0459 40.7257 21.03 40.8889 20.9982C41.0579 20.9664 41.1861 20.9378 41.2735 20.9123L41.8067 23.6123C41.6377 23.6759 41.3958 23.7458 41.0812 23.8222C40.7723 23.8985 40.3935 23.943 39.9448 23.9557C39.1523 23.9812 38.4384 23.8508 37.8032 23.5646C37.1681 23.272 36.664 22.8204 36.291 22.2098C35.9239 21.5992 35.7432 20.836 35.7491 19.9201V5.59033Z" fill="#FFFBFF"/>
<path d="M23.6771 23.959C22.2825 23.959 21.0782 23.6501 20.064 23.0324C19.0558 22.4083 18.2801 21.5268 17.7367 20.3879C17.1934 19.2426 16.9218 17.8947 16.9218 16.344C16.9218 14.8191 17.1934 13.4808 17.7367 12.329C18.2861 11.1709 19.0528 10.2701 20.0368 9.62664C21.0208 8.97679 22.1769 8.65186 23.505 8.65186C24.3623 8.65186 25.1712 8.79984 25.9319 9.09582C26.6986 9.38536 27.3747 9.83576 27.9603 10.447C28.5519 11.0583 29.0167 11.8368 29.3548 12.7826C29.6929 13.7221 29.8619 14.8416 29.8619 16.1413V17.2126H18.4612V14.8577H26.7197C26.7137 14.1885 26.5778 13.5934 26.3122 13.0722C26.0466 12.5446 25.6753 12.1296 25.1984 11.8272C24.7275 11.5248 24.1781 11.3735 23.5503 11.3735C22.8802 11.3735 22.2916 11.5473 21.7845 11.8947C21.2774 12.2357 20.882 12.6861 20.5982 13.2459C20.3205 13.7993 20.1787 14.4073 20.1726 15.07V17.1258C20.1726 17.988 20.3205 18.7279 20.6164 19.3456C20.9122 19.9568 21.3257 20.4265 21.8569 20.7547C22.3882 21.0764 23.01 21.2373 23.7224 21.2373C24.1993 21.2373 24.6309 21.1665 25.0173 21.0249C25.4036 20.8769 25.7387 20.6614 26.0224 20.3783C26.3062 20.0952 26.5205 19.7445 26.6654 19.3263L29.7261 19.693C29.5329 20.5552 29.1646 21.308 28.6213 21.9515C28.084 22.5885 27.3958 23.0839 26.5567 23.4378C25.7176 23.7852 24.7577 23.959 23.6771 23.959Z" fill="#FFFBFF"/>
<path d="M53.7727 23.3151V20.5173L64.6248 4.90681H53.7514V1.02051H70.4013V3.81821L59.5385 19.4287H70.4225V23.3151H53.7727Z" fill="#FFFBFF"/>
<path d="M98.6176 13.5177V23.3151H94.7737V6.59418H98.4477V9.43543H98.6389C99.014 8.49924 99.6122 7.75536 100.433 7.2038C101.262 6.65224 102.285 6.37646 103.502 6.37646C104.628 6.37646 105.608 6.62321 106.443 7.11671C107.286 7.61021 107.937 8.32506 108.397 9.26126C108.864 10.1975 109.095 11.3332 109.087 12.6686V23.3151H105.244V13.2782C105.244 12.1606 104.96 11.2861 104.394 10.6547C103.835 10.0233 103.06 9.70758 102.069 9.70758C101.396 9.70758 100.798 9.85999 100.274 10.1648C99.7573 10.4623 99.3503 10.8942 99.053 11.4602C98.7627 12.0263 98.6176 12.7121 98.6176 13.5177Z" fill="#FFFBFF"/>
<path d="M120.747 23.315C119.112 23.315 117.7 22.9667 116.511 22.27C115.328 21.566 114.419 20.5717 113.782 19.2872C113.145 17.9954 112.826 16.475 112.826 14.726C112.826 13.006 113.145 11.4964 113.782 10.1974C114.426 8.89105 115.325 7.87502 116.479 7.14929C117.633 6.4163 118.988 6.0498 120.546 6.0498C121.551 6.0498 122.5 6.21672 123.391 6.55056C124.29 6.87714 125.083 7.38515 125.77 8.0746C126.464 8.76405 127.009 9.64219 127.405 10.709C127.802 11.7686 128 13.0314 128 14.4973V15.7057H114.631V13.0495H124.315C124.308 12.2947 124.149 11.6234 123.837 11.0356C123.526 10.4405 123.091 9.9724 122.531 9.6313C121.979 9.29021 121.335 9.11966 120.599 9.11966C119.813 9.11966 119.123 9.31561 118.528 9.7075C117.934 10.0921 117.47 10.6002 117.137 11.2315C116.812 11.8557 116.645 12.5415 116.638 13.289V15.6077C116.638 16.5802 116.812 17.4148 117.158 18.1115C117.505 18.8009 117.99 19.3307 118.613 19.7009C119.236 20.0637 119.965 20.2452 120.801 20.2452C121.36 20.2452 121.866 20.1653 122.319 20.0057C122.772 19.8387 123.165 19.5956 123.498 19.2763C123.83 18.957 124.082 18.5615 124.252 18.0897L127.841 18.5034C127.614 19.4759 127.182 20.325 126.545 21.0507C125.915 21.7692 125.108 22.328 124.124 22.7272C123.14 23.1191 122.015 23.315 120.747 23.315Z" fill="#FFFBFF"/>
<path d="M87.9996 6.12988C88.8745 9.61088 86.9059 12.8985 85.8122 14.1072C85.8122 14.1072 84.362 12.3047 82.8958 11.9315C81.4892 11.5736 80.3963 11.7702 79.2502 12.6568C77.8287 13.7564 77.2856 14.9013 77.6959 16.6454C78.1089 18.4003 79.3085 19.4981 81.0729 19.9088C82.8264 20.317 84.1742 19.7249 85.4476 18.4584C85.9442 17.9646 86.6661 17.396 87.3064 16.9223C88.1799 16.2762 89.3304 16.1766 90.3299 16.6027C90.9403 16.8629 91.4272 17.3479 91.6898 17.9573L92.1663 19.0634C92.2391 19.2323 92.0588 19.4164 91.884 19.3595C91.1925 19.1341 89.923 18.8643 89.0932 19.5462C86.7678 21.4574 84.3539 24.6227 80.3438 23.8975C76.3337 23.1723 74.4668 20.9103 73.7817 17.3706C73.3558 15.1696 74.4469 12.8132 75.1203 11.625C75.4085 11.1164 75.5161 10.5162 75.4736 9.93317C75.3855 8.72307 75.5098 7.15219 75.6046 6.49249L79.2501 8.30551C79.2501 8.30551 80.7953 7.94291 81.802 7.9429C82.8087 7.9429 84.354 8.30551 84.354 8.30551L87.9996 6.12988Z" fill="#FFFBFF"/>
</svg>
