<svg width="16" height="16" viewBox="0 0 16 16" fill="none" xmlns="http://www.w3.org/2000/svg">
<path d="M11 4.99999V8.99999C11 10.1046 11.8954 11 13 11C14.1046 11 15 10.1046 15 8.99999V7.99999C15 6.50214 14.5197 5.04381 13.6294 3.83928C12.7391 2.63475 11.4856 1.74756 10.0537 1.30809C8.62179 0.868619 7.08657 0.900017 5.67383 1.39772C4.26109 1.89543 3.04534 2.83319 2.20508 4.07315C1.36482 5.31311 0.94457 6.78985 1.00587 8.28644C1.06717 9.78303 1.60689 11.2205 2.54574 12.3876C3.48459 13.5547 4.7732 14.3899 6.22191 14.7704C7.67062 15.1509 9.20295 15.0566 10.5941 14.5015M11 7.99999C11 9.65684 9.65686 11 8 11C6.34315 11 5 9.65684 5 7.99999C5 6.34313 6.34315 4.99999 8 4.99999C9.65686 4.99999 11 6.34313 11 7.99999Z" stroke="#AEAAAB" stroke-width="1.5" stroke-linecap="round" stroke-linejoin="round"/>
</svg>
