<svg width="16" height="18" viewBox="0 0 16 18" fill="none" xmlns="http://www.w3.org/2000/svg">
<path d="M3.68716 16.3652L3.91892 15.6519L3.68716 16.3652ZM1.19034 13.8684L1.90363 13.6366L1.19034 13.8684ZM14.8097 13.8684L14.0964 13.6366L14.8097 13.8684ZM12.3128 16.3652L12.0811 15.6519L12.3128 16.3652ZM12.3128 5.857L12.0811 6.57029L12.3128 5.857ZM14.8097 8.35382L14.0964 8.58559L14.8097 8.35382ZM3.68716 5.857L3.91892 6.57029L3.68716 5.857ZM1.19034 8.35382L1.90363 8.58559L1.19034 8.35382ZM8.75 9.55556C8.75 9.14134 8.41421 8.80556 8 8.80556C7.58579 8.80556 7.25 9.14134 7.25 9.55556H8.75ZM7.25 12.6667C7.25 13.0809 7.58579 13.4167 8 13.4167C8.41421 13.4167 8.75 13.0809 8.75 12.6667H7.25ZM6.44444 6.41667H9.55556V4.91667H6.44444V6.41667ZM9.55556 15.8056H6.44444V17.3056H9.55556V15.8056ZM6.44444 15.8056C4.93841 15.8056 4.36326 15.7963 3.91892 15.6519L3.45539 17.0785C4.18264 17.3148 5.05516 17.3056 6.44444 17.3056V15.8056ZM0.25 11.1111C0.25 12.5004 0.240747 13.3729 0.477043 14.1002L1.90363 13.6366C1.75925 13.1923 1.75 12.6171 1.75 11.1111H0.25ZM3.91892 15.6519C2.96332 15.3414 2.21412 14.5922 1.90363 13.6366L0.477043 14.1002C0.935912 15.5124 2.04314 16.6196 3.45539 17.0785L3.91892 15.6519ZM14.25 11.1111C14.25 12.6171 14.2407 13.1923 14.0964 13.6366L15.523 14.1002C15.7593 13.3729 15.75 12.5004 15.75 11.1111H14.25ZM9.55556 17.3056C10.9448 17.3056 11.8174 17.3148 12.5446 17.0785L12.0811 15.6519C11.6367 15.7963 11.0616 15.8056 9.55556 15.8056V17.3056ZM14.0964 13.6366C13.7859 14.5922 13.0367 15.3414 12.0811 15.6519L12.5446 17.0785C13.9569 16.6196 15.0641 15.5124 15.523 14.1002L14.0964 13.6366ZM15.75 11.1111C15.75 9.72182 15.7593 8.84931 15.523 8.12206L14.0964 8.58559C14.2407 9.02993 14.25 9.60507 14.25 11.1111H15.75ZM12.0811 6.57029C13.0367 6.88079 13.7859 7.62999 14.0964 8.58559L15.523 8.12206C15.0641 6.70981 13.9569 5.60258 12.5446 5.14371L12.0811 6.57029ZM1.75 11.1111C1.75 9.60507 1.75925 9.02993 1.90363 8.58559L0.477043 8.12206C0.240747 8.84931 0.25 9.72182 0.25 11.1111H1.75ZM3.45539 5.14371C2.04314 5.60258 0.935912 6.70981 0.477043 8.12206L1.90363 8.58559C2.21412 7.62999 2.96332 6.88079 3.91892 6.57029L3.45539 5.14371ZM11.1389 4.88889V5.66667H12.6389V4.88889H11.1389ZM4.86111 5.66667V4.88889H3.36111V5.66667H4.86111ZM8 1.75C9.73356 1.75 11.1389 3.15533 11.1389 4.88889H12.6389C12.6389 2.3269 10.562 0.25 8 0.25V1.75ZM8 0.25C5.43801 0.25 3.36111 2.3269 3.36111 4.88889H4.86111C4.86111 3.15533 6.26644 1.75 8 1.75V0.25ZM7.25 9.55556V12.6667H8.75V9.55556H7.25ZM6.44444 4.91667C5.35334 4.91667 4.58891 4.91405 3.98652 5.01553L4.23571 6.49469C4.68331 6.41928 5.29296 6.41667 6.44444 6.41667V4.91667ZM3.98652 5.01553C3.80249 5.04654 3.62708 5.08792 3.45539 5.14371L3.91892 6.57029C4.01136 6.54026 4.11412 6.51517 4.23571 6.49469L3.98652 5.01553ZM3.36111 5.66667V5.75511H4.86111V5.66667H3.36111ZM9.55556 6.41667C10.707 6.41667 11.3167 6.41928 11.7643 6.49469L12.0135 5.01553C11.4111 4.91405 10.6467 4.91667 9.55556 4.91667V6.41667ZM11.7643 6.49469C11.8859 6.51517 11.9886 6.54026 12.0811 6.57029L12.5446 5.14371C12.3729 5.08792 12.1975 5.04654 12.0135 5.01553L11.7643 6.49469ZM11.1389 5.66667V5.75511H12.6389V5.66667H11.1389Z" fill="#AEAAAB"/>
</svg>
