<svg width="20" height="21" viewBox="0 0 20 21" fill="none" xmlns="http://www.w3.org/2000/svg">
<path d="M7.50295 2.75722C7.19922 1.9979 6.46381 1.5 5.646 1.5H2.89474C1.8483 1.5 1 2.34834 1 3.39478C1 12.2895 8.21078 19.5 17.1055 19.5C18.1519 19.5 19 18.6518 19 17.6053L18.9999 14.854C18.9999 14.0362 18.5019 13.3009 17.7426 12.9971L15.1071 11.9429C14.4251 11.6701 13.6485 11.793 13.0842 12.2633L12.4031 12.8307C11.6084 13.4929 10.44 13.44 9.70854 12.7085L7.79136 10.7915C7.05993 10.0601 7.00722 8.89154 7.66943 8.09688L8.23682 7.41597C8.7071 6.85163 8.83002 6.07493 8.55719 5.39286L7.50295 2.75722Z" stroke="#AEAAAB" stroke-width="1.5" stroke-linecap="round" stroke-linejoin="round"/>
</svg>
