<svg width="334" height="333" viewBox="0 0 334 333" fill="none" xmlns="http://www.w3.org/2000/svg">
<path d="M303.365 33.0315C297.583 25.7114 290.517 19.1601 281.933 13.5919C243.145 -11.5714 197.067 -0.845519 169.543 37.9117C158.128 53.9853 148.647 71.7586 129.544 75.9031C119.686 78.0419 109.543 77.4299 99.5422 78.378C64.0919 81.736 32.4922 105.647 14.6138 140.389C-9.24352 186.754 -3.26611 245.483 27.9861 285.693C57.8827 324.158 103.094 336.225 146.679 332.293C169.022 330.278 191.075 324.485 212.248 316.212C237.588 306.312 263.945 296.144 283.12 273.879C306.86 246.313 318.336 208.096 323.118 170.59C329.191 122.959 331.626 68.808 303.365 33.0315Z" fill="#2753BB"/>
<ellipse cx="73.4328" cy="280.218" rx="14.5" ry="14" transform="rotate(2.98275 73.4328 280.218)" fill="#18235F"/>
<circle cx="195.194" cy="297.577" r="14" transform="rotate(2.98275 195.194 297.577)" fill="#18235F"/>
<path d="M207.019 238.685L233.993 77.4434L117.214 61.2283L105.52 123.652L85.1307 223.329L207.019 238.685Z" fill="#FF716F"/>
<path d="M155.205 66.5848C154.205 74.9746 152.199 91.8664 152.176 92.3154C152.001 95.683 152.362 103.353 157.058 106.64C161.402 109.68 171.212 115.819 184.706 105.266C195.501 96.8241 196.745 79.4423 197.686 72.1751" stroke="#FFD9D9" stroke-width="3"/>
<path d="M207.019 238.685L233.993 77.4436L227.747 229.443C227.714 230.241 227.21 230.943 226.465 231.229L207.019 238.685Z" fill="#FF3137"/>
<path d="M168.916 185.978C167.909 191.067 163.221 191.613 161.518 191.276C159.671 190.91 158.295 190.081 156.872 189.157C153.964 187.267 150.464 186.574 147.055 187.213C145.387 187.525 143.799 187.768 141.953 187.402C140.25 187.065 136.123 184.774 137.131 179.685C138.331 173.623 144.515 174.002 147.535 170.886C149.244 169.124 151.982 164.005 156.571 164.914C161.16 165.823 161.741 171.598 162.649 173.878C164.255 177.91 170.116 179.916 168.916 185.978Z" fill="#FFD9D9"/>
<path d="M151.987 162.898C149.434 162.748 147.172 158.139 147.473 153.033C147.773 147.927 150.523 144.257 153.076 144.407C155.63 144.557 156.852 148.461 156.552 153.568C156.251 158.674 154.541 163.049 151.987 162.898Z" fill="#FFD9D9"/>
<path d="M142.961 168.9C140.774 169.115 138.238 165.506 137.811 161.133C137.382 156.76 139.225 153.278 141.412 153.064C143.598 152.85 145.158 155.999 145.586 160.372C146.014 164.746 145.148 168.686 142.961 168.9Z" fill="#FFD9D9"/>
<path d="M161.577 164.797C163.994 165.631 167.842 162.232 169.51 157.396C171.177 152.56 170.033 148.119 167.616 147.286C165.198 146.452 162.579 149.596 160.912 154.431C159.244 159.267 159.158 163.963 161.577 164.797Z" fill="#FFD9D9"/>
<path d="M167.635 173.786C169.575 174.817 173.295 172.447 175.357 168.567C177.419 164.687 177.042 160.765 175.102 159.734C173.162 158.703 170.52 161.021 168.458 164.901C166.396 168.781 165.695 172.755 167.635 173.786Z" fill="#FFD9D9"/>
<path d="M136.775 128.657L67.4703 119.418L53.8456 218.885L122.56 228.656L136.775 128.657Z" fill="#8D79FE"/>
<path d="M89.7047 122.828C89.0823 128.209 87.8338 139.044 87.8188 139.332C87.7063 141.492 87.9123 146.409 90.7601 148.509C93.3946 150.45 99.3454 154.37 107.564 147.58C114.139 142.147 114.925 130.999 115.51 126.338" stroke="#D7D8FF" stroke-width="2"/>
<path d="M122.56 228.657L136.775 128.657L134.996 227.616L122.56 228.657Z" fill="#131F88"/>
<path d="M53.2654 262.428L217.799 285.322C220.587 285.71 223.47 285.777 226.052 284.655C229.885 282.99 234.037 279.901 235.472 275.876C237.996 268.799 247.621 248.155 220.338 242.304M265.17 127.169L280.577 90.6904L333.663 97.9754M265.17 127.169L217.072 121.369M265.17 127.169L251.804 161.494M220.338 242.304C218.953 242.007 217.468 241.747 215.876 241.528C211.411 240.913 205.08 240.044 197.436 238.997M220.338 242.304L235.204 204.124M217.072 121.369L197.436 238.997M217.072 121.369L182.956 117.255M197.436 238.997C188.36 237.754 177.433 236.259 165.583 234.64M165.583 234.64L182.956 117.255M165.583 234.64C155.621 233.278 145.007 231.828 134.29 230.365M182.956 117.255L148.84 113.142M148.84 113.142L134.29 230.365M148.84 113.142L115.283 109.095M134.29 230.365C125.312 229.139 116.263 227.904 107.467 226.704M107.467 226.704L115.283 109.095M107.467 226.704C95.9943 225.138 84.9511 223.631 75.055 222.282M115.283 109.095L78.9298 104.712M78.9298 104.712L34.1876 99.317L40.3479 134.095M78.9298 104.712L75.055 222.282M75.055 222.282C67.831 221.296 61.2183 220.395 55.4962 219.614L48.427 179.705M48.427 179.705L235.204 204.124M48.427 179.705L40.3479 134.095M235.204 204.124L251.804 161.494M251.804 161.494L40.3479 134.095" stroke="#18235F" stroke-width="3"/>
</svg>
