<svg width="600" height="855" viewBox="0 0 600 855" fill="none" xmlns="http://www.w3.org/2000/svg">
<path d="M48.6529 763.601C-16.0165 801.405 -12.3471 763.601 -25.3471 763.601C-35.8471 763.601 -61.4471 770.901 -79.8471 800.101C-98.2471 829.301 5.81953 848.601 60.1529 854.601C76.9862 854.101 96.3653 837.741 112.153 788.601C126 745.5 101 733 48.6529 763.601Z" fill="#2653B8"/>
<path fill-rule="evenodd" clip-rule="evenodd" d="M535.55 990.992C507.517 980.816 492.114 954.527 474.087 930.787C454.074 904.433 419.354 880.035 426.828 847.819C434.284 815.681 480.34 815.53 505.721 794.43C537.749 767.805 550.568 704.991 591.863 710.622C632.577 716.174 629.323 778.404 649.69 814.063C667.409 845.085 704.62 867.446 701.768 903.041C698.758 940.612 668.976 971.789 635.64 989.428C604.992 1005.64 568.157 1002.83 535.55 990.992Z" fill="#2753BB"/>
<path fill-rule="evenodd" clip-rule="evenodd" d="M518.732 -10.9357C530.575 -11.4765 542.106 -8.58962 552.468 -2.83309C563.982 3.56381 573.475 12.4189 580.647 23.4615C589.977 37.827 602.187 52.8992 599.664 69.8378C597.047 87.4114 583.683 103.164 567.638 110.821C552.541 118.026 535.452 107.869 518.732 108.459C501.037 109.082 482.938 122.566 467.253 114.359C451.401 106.064 446.202 85.8367 442.194 68.411C438.461 52.1814 436.336 33.6972 445.499 19.7874C454.154 6.64985 472.65 6.23732 487.164 0.148387C497.705 -4.2742 507.31 -10.4143 518.732 -10.9357Z" fill="#2753BB"/>
<path fill-rule="evenodd" clip-rule="evenodd" d="M-149.434 567C-76.6976 558.445 16.3191 556.806 51.1292 491.918C74.6388 448.094 51.261 407.91 37.109 364.63C23.1266 321.87 19.8186 274.103 17.4606 229.176C15.4028 189.969 15.7535 148.965 -7.21994 116.057C-40.3593 53.6917 -96.1416 -46.5711 -165.885 -47.4429C-239.299 -48.3606 -262.62 61.2859 -329.002 92.3329C-386.663 119.301 -474.336 65.2783 -514 115.37C-552.67 164.207 -492.143 235.326 -491.997 298.18C-491.838 366.485 -553.085 441.268 -513.114 496.726C-473.542 551.629 -386.641 522.95 -320.829 535.667C-262.368 546.963 -208.385 573.933 -149.434 567Z" fill="#2753BB"/>
<path fill-rule="evenodd" clip-rule="evenodd" d="M27.4877 76.0028C25.9312 77.8184 23.5197 79.302 23.3816 81.6676C23.2447 84.012 25.1807 85.8893 26.8142 87.5359C28.0932 88.8253 29.9618 89.0806 31.5731 89.925C33.2772 90.8181 34.5808 92.5067 36.5157 92.6202C38.7105 92.7491 40.8185 91.8084 42.6705 90.5764C44.9457 89.0628 48.1279 87.5296 48.2371 84.8225C48.3485 82.0603 44.7591 80.8628 43.1513 78.6526C41.8672 76.8875 41.5191 74.5475 39.7921 73.2139C37.7889 71.667 35.316 70.1001 32.8109 70.6679C30.3162 71.2333 29.1636 74.0478 27.4877 76.0028Z" fill="#2652BA"/>
<path fill-rule="evenodd" clip-rule="evenodd" d="M63.0248 125.991C65.6202 126.067 68.3425 125.655 70.3118 124.449C72.2105 123.285 72.5309 121.38 73.3157 119.686C74.105 117.982 75.3756 116.318 74.894 114.557C74.3802 112.678 72.6337 111.124 70.6264 109.851C68.4389 108.463 65.9277 106.753 63.0248 107.03C60.1326 107.306 58.9941 109.826 56.7706 111.172C54.7942 112.368 52.1283 112.898 50.7471 114.462C49.0956 116.332 47.1981 118.65 48.3559 120.699C49.5168 122.754 53.3825 123.037 56.1566 124.038C58.411 124.851 60.4999 125.918 63.0248 125.991Z" fill="#2652BA"/>
</svg>
