<svg width="24" height="24" viewBox="0 0 24 24" fill="none" xmlns="http://www.w3.org/2000/svg">
<g clip-path="url(#clip0_3027_867)">
<path d="M13.8 24H10.2C10.0272 23.964 9.8544 23.9292 9.6828 23.892C8.1456 23.5656 6.57 23.3604 5.0808 22.8828C3.0588 22.2348 1.4352 20.988 0.552 18.9708C0.3156 18.4308 0.1812 17.844 0 17.28C0 16.6404 0 15.9996 0 15.36C0.318 14.3148 0.6456 13.2732 0.9468 12.2244C1.0476 11.8716 1.1484 11.4972 1.134 11.136C1.0296 8.46 0.9084 5.784 1.4424 3.1368C1.6788 1.9608 1.9572 0.7848 3 0H3.48C4.9416 0.4656 6.3456 1.0728 7.3824 2.2332C8.1708 3.1152 8.8224 4.1196 9.5892 5.1432C11.166 4.7604 12.888 4.8168 14.4732 5.1432C15.1236 4.2252 15.6672 3.3372 16.3308 2.5512C17.4324 1.2456 18.9264 0.5292 20.52 0H21C22.0416 0.7308 22.3128 1.8732 22.5516 3.0072C23.1252 5.7348 22.9884 8.496 22.8756 11.2536C22.8672 11.4684 22.8468 11.6988 22.908 11.8992C23.2596 13.0572 23.634 14.2068 24.0012 15.36V17.16C23.9628 17.292 23.9124 17.4228 23.8872 17.5584C23.6316 18.9372 22.9968 20.1108 21.9756 21.0696C20.3712 22.5768 18.3804 23.2404 16.2744 23.6316C15.4548 23.784 14.6256 23.88 13.8012 24.0012L13.8 24ZM22.2216 14.6316C21.7464 11.31 17.6916 6.366 11.9064 6.3768C7.3284 6.3852 2.0412 10.686 1.7832 14.6316C2.5632 14.6316 3.3396 14.6316 4.116 14.6316C4.8876 14.6316 5.2548 14.8728 5.2536 15.3768C5.2536 15.8772 4.8912 16.1112 4.11 16.1136C3.8304 16.1136 3.5508 16.1136 3.27 16.1136C2.7 16.1136 2.1312 16.1136 1.5516 16.1136C1.5516 16.4736 1.56 16.7304 1.5492 16.986C1.5276 17.5008 1.7532 17.6772 2.2728 17.6412C2.9496 17.5944 3.6312 17.6256 4.3104 17.6316C4.9056 17.6364 5.2884 17.934 5.2476 18.39C5.1996 18.9312 4.8468 19.1244 4.3332 19.1148C3.7044 19.104 3.0756 19.1124 2.436 19.1124C2.4528 19.2372 2.448 19.2804 2.466 19.3104C2.5056 19.3788 2.5536 19.4448 2.604 19.506C3.5592 20.6592 4.8324 21.3096 6.234 21.7164C9.6636 22.7124 13.1352 22.7388 16.6128 22.0236C18.2712 21.6828 19.842 21.0984 21.0756 19.8564C21.2712 19.6596 21.4236 19.422 21.6672 19.1112C20.8752 19.1112 20.238 19.1064 19.6008 19.1124C19.1004 19.1172 18.7956 18.8844 18.7488 18.3852C18.7092 17.952 19.086 17.6376 19.6308 17.6316C20.3904 17.6232 21.1512 17.646 21.9096 17.616C22.0776 17.6088 22.3524 17.4624 22.3824 17.3352C22.4688 16.9608 22.4568 16.5636 22.4808 16.2072C22.3548 16.1556 22.3188 16.128 22.2828 16.128C21.4236 16.1208 20.5644 16.1208 19.7052 16.1112C19.0884 16.104 18.7476 15.8364 18.744 15.372C18.7416 14.9184 19.1016 14.6364 19.7064 14.6328C20.5428 14.628 21.378 14.6328 22.2204 14.6328L22.2216 14.6316ZM20.5584 1.5996C18.4248 2.3244 16.9752 3.6348 16.0656 5.6376C18.1764 6.4944 19.914 7.7928 21.4656 9.6396C21.4644 6.8268 21.5784 4.2 20.5572 1.6008L20.5584 1.5996ZM7.9608 5.6292C7.0176 3.618 5.5764 2.2992 3.4644 1.6032C2.4276 4.1796 2.5608 6.8004 2.6184 9.432C4.1172 7.77 5.8404 6.48 7.9596 5.6292H7.9608Z" fill="#1C1B1C"/>
<path d="M11.9974 20.8739C10.993 21.7787 9.89979 22.0103 8.70219 21.4415C7.76259 20.9951 7.24779 20.2211 7.14219 19.1843C7.08579 18.6335 7.33419 18.2579 7.77939 18.1979C8.22339 18.1379 8.55219 18.4415 8.63379 18.9863C8.74059 19.6979 9.11379 20.1179 9.73659 20.2283C10.3318 20.3339 10.807 20.0495 11.1766 19.3379C10.4626 18.8363 9.94779 18.1811 9.78939 17.2847C9.59619 16.1951 10.1254 15.4595 11.215 15.3839C11.7526 15.3467 12.2974 15.3443 12.8326 15.3887C13.8586 15.4739 14.3926 16.1975 14.2222 17.2163C14.0734 18.1127 13.609 18.8051 12.8566 19.2959C13.0738 19.9391 13.549 20.2871 14.1346 20.2463C14.7574 20.2031 15.2506 19.7459 15.355 19.1159C15.3646 19.0571 15.361 18.9959 15.3682 18.9371C15.4318 18.4439 15.7066 18.1535 16.2082 18.2087C16.7206 18.2651 16.903 18.6335 16.8622 19.1147C16.7674 20.2259 16.219 21.0347 15.1966 21.4871C14.2018 21.9263 13.249 21.8183 12.367 21.1727C12.2542 21.0911 12.1498 20.9987 11.9962 20.8739H11.9974ZM11.2606 16.9163C11.3494 17.4323 11.485 17.8727 12.019 17.9723C12.3334 18.0311 12.667 17.4491 12.6634 16.9163H11.2618H11.2606Z" fill="#1C1B1C"/>
<path d="M9.73804 12.5735C9.73444 13.2911 9.15364 13.8743 8.44324 13.8743C7.73644 13.8743 7.13764 13.2851 7.12804 12.5807C7.11844 11.8391 7.71364 11.2523 8.46364 11.2631C9.18964 11.2739 9.74044 11.8403 9.73684 12.5735H9.73804Z" fill="#1C1B1C"/>
<path d="M14.2618 12.5375C14.2714 11.7923 14.8582 11.2403 15.6154 11.2631C16.3234 11.2847 16.8886 11.8799 16.8718 12.5867C16.855 13.2887 16.261 13.8743 15.565 13.8743C14.8294 13.8743 14.2522 13.2827 14.2618 12.5375Z" fill="#1C1B1C"/>
</g>
<defs>
<clipPath id="clip0_3027_867">
<rect width="24" height="24" fill="white"/>
</clipPath>
</defs>
</svg>
