<svg width="24" height="24" viewBox="0 0 24 24" fill="none" xmlns="http://www.w3.org/2000/svg">
<g clip-path="url(#clip0_3027_820)">
<path d="M0 10.3453C0 9.7849 0 9.2245 0 8.6653C0.7488 7.4689 1.4352 6.2281 2.2632 5.0905C3.0636 3.9901 4.0452 3.0397 5.34 2.4901C6.1572 2.1433 6.9144 2.2021 7.5492 2.8417C7.872 3.1669 8.1624 3.1573 8.5584 3.0169C10.2924 2.4025 12.0516 1.9993 13.8912 2.5537C14.4636 2.7265 15.0348 2.9137 15.6168 3.0433C15.8292 3.0901 16.1544 3.0685 16.2912 2.9365C17.1492 2.1109 18.0744 2.1193 19.0356 2.6689C19.5 2.9341 19.95 3.2473 20.3472 3.6049C21.9276 5.0245 23.0964 6.7489 23.9988 8.6629V10.3429C23.6724 11.0401 23.3484 11.7385 23.0172 12.4345C22.5924 13.3285 22.1424 14.2117 21.7392 15.1165C21.4884 15.6793 21.366 16.3045 21.0744 16.8421C20.4612 17.9749 19.0332 17.9857 18.3444 16.8877C18.1692 16.6081 18.06 16.2889 17.9208 15.9865C17.868 15.9697 17.8164 15.9529 17.7636 15.9361C17.5968 16.4665 17.4204 16.9957 17.2656 17.5297C17.1276 18.0025 17.1012 18.5317 16.8708 18.9505C15.5868 21.2857 12.48 22.4113 10.0296 21.3565C8.244 20.5873 6.7824 19.4677 6.684 17.2453C6.6648 16.8049 6.3516 16.3765 6.1248 15.8233C5.958 16.2289 5.8764 16.4533 5.7744 16.6681C5.4876 17.2777 5.0244 17.6341 4.3344 17.6713C3.6216 17.7097 3.168 17.3269 2.856 16.7437C2.7072 16.4653 2.6148 16.1557 2.4984 15.8593C2.13 14.9149 1.8024 13.9525 1.3848 13.0297C0.9708 12.1153 0.4656 11.2393 0 10.3453ZM12.648 17.5753C13.176 18.3925 14.9028 18.6505 15.5508 18.0181C15.6528 17.9185 15.7224 17.7445 15.732 17.5993C15.8292 16.1833 16.5096 15.0661 17.478 14.0833C17.6256 13.9345 17.8164 13.7377 17.8248 13.5553C17.9136 11.7685 18.2556 9.9625 17.5104 8.2237C17.196 7.4893 16.8864 6.7537 16.59 6.0121C16.422 5.5909 16.4832 5.1925 16.9188 4.9861C17.3028 4.8049 17.7072 4.8901 17.8968 5.2957C18.7512 7.1281 19.5816 8.9713 19.4748 11.0701C19.4136 12.2881 19.3404 13.5061 19.3296 14.7253C19.3248 15.1957 19.4772 15.6661 19.5576 16.1365C19.6248 16.1365 19.692 16.1365 19.7592 16.1365C19.8348 15.9853 19.9392 15.8413 19.9824 15.6817C20.4264 14.0305 21.0564 12.4777 22.0836 11.0809C22.5864 10.3981 22.7124 9.5113 22.3428 8.7349C21.582 7.1341 20.5284 5.7217 19.1736 4.5625C18.03 3.5833 17.8404 3.5941 16.7484 4.5853C16.4304 4.8733 16.1172 4.9777 15.7188 4.7737C13.4064 3.5869 11.0376 3.4597 8.6904 4.5877C7.8984 4.9681 7.3884 4.8685 6.8856 4.2373C6.4692 3.7165 5.9988 3.6985 5.4816 4.0813C5.3052 4.2121 5.1132 4.3225 4.944 4.4605C3.6996 5.4709 2.796 6.7609 1.9572 8.1061C1.2588 9.2257 1.338 10.3345 2.0784 11.3569C2.94 12.5449 3.5088 13.8397 3.864 15.2497C3.942 15.5593 4.0968 15.8485 4.2168 16.1473C4.272 16.1413 4.3272 16.1353 4.3824 16.1293C4.4484 15.9313 4.5636 15.7345 4.5708 15.5353C4.6008 14.5789 4.7172 13.6057 4.59 12.6685C4.2384 10.0765 4.8984 7.7173 6.0168 5.4313C6.2352 4.9849 6.5856 4.7845 7.0428 4.9765C7.5168 5.1745 7.5684 5.5861 7.398 6.0361C7.3632 6.1297 7.302 6.2125 7.2696 6.3073C6.864 7.4953 6.3192 8.6581 6.102 9.8797C5.9172 10.9189 6.1236 12.0265 6.1272 13.1041C6.1284 13.5325 6.2616 13.8481 6.5712 14.1553C7.5192 15.0937 8.1648 16.1965 8.2644 17.5681C8.2752 17.7157 8.3292 17.8921 8.4264 17.9977C9.0468 18.6661 10.884 18.3961 11.3328 17.5621C10.518 17.1565 9.9132 16.5373 9.5412 15.7057C9.1884 14.9149 9.3996 14.2777 10.1844 13.9153C11.3724 13.3657 12.5916 13.3645 13.7832 13.8973C14.6004 14.2621 14.8068 14.9053 14.4432 15.7273C14.0736 16.5649 13.4532 17.1661 12.6468 17.5801L12.648 17.5753ZM10.4388 19.8769C11.4924 20.4313 12.6744 20.4205 13.5228 19.8613C13.0836 19.6669 12.6348 19.4617 12.1788 19.2733C12.0804 19.2325 11.94 19.2229 11.8452 19.2613C11.3712 19.4545 10.9068 19.6693 10.44 19.8769H10.4388ZM13.0596 15.3409C13.0236 15.2725 12.9876 15.2041 12.9516 15.1357H11.0448C11.0112 15.2197 10.9788 15.3037 10.9452 15.3877C11.3136 15.6349 11.6808 16.0705 12.0504 16.0717C12.3864 16.0729 12.7236 15.6025 13.0608 15.3409H13.0596Z" fill="#1C1B1C"/>
</g>
<defs>
<clipPath id="clip0_3027_820">
<rect width="24" height="19.476" fill="white" transform="translate(0 2.28003)"/>
</clipPath>
</defs>
</svg>
