<svg width="24" height="24" viewBox="0 0 24 24" fill="none" xmlns="http://www.w3.org/2000/svg">
<g clip-path="url(#clip0_3027_704)">
<path d="M18.6002 0C19.3598 0 20.1206 0 20.8802 0C20.9738 0.0312 21.0662 0.0744 21.1622 0.0912C22.2026 0.2748 22.1858 0.276 22.3694 1.2924C22.3958 1.4364 22.6646 1.6224 22.8362 1.6404C23.7254 1.7304 23.7254 1.7136 23.8814 2.6112C23.9042 2.7432 23.9594 2.8704 24.0002 3V5.4C23.9654 5.5128 23.9126 5.6232 23.8982 5.7396C23.5778 8.2848 22.7126 10.6128 21.1838 12.6876C21.0518 12.8664 20.9954 13.1184 20.9582 13.3452C20.6282 15.4092 19.7894 17.2332 18.3854 18.7848C17.8034 19.428 17.0498 19.6632 16.2698 19.2936C15.5786 18.966 14.9726 18.4596 14.3234 18.042C14.1698 17.9436 13.9778 17.7924 13.8278 17.8164C12.557 18.0252 11.2922 18.2688 10.001 18.5064C9.94942 19.0728 9.94942 19.7364 9.81862 20.3736C9.52822 21.7848 9.22342 23.2104 7.79902 23.9988H7.07902C6.40342 23.5824 6.11182 22.9536 5.97502 22.188C5.44702 19.2444 4.79782 18.5844 1.86982 18.0348C1.08742 17.8884 0.431023 17.6124 -0.000976562 16.9188V16.1988C0.320623 15.5364 0.852224 15.078 1.52062 14.8272C2.24542 14.556 2.99302 14.328 3.74902 14.1684C4.36222 14.0388 5.00182 14.0388 5.61502 13.9824C5.66542 13.3248 5.67862 12.7032 5.76982 12.0924C5.86462 11.4624 6.05302 10.8468 6.15982 10.2192C6.18622 10.0632 6.08902 9.8556 5.98942 9.7152C5.68822 9.294 5.31742 8.9184 5.04502 8.4804C4.27582 7.242 4.41862 6.294 5.53582 5.3688C7.01062 4.146 8.69902 3.3732 10.6022 3.078C10.8638 3.0372 11.1398 2.928 11.3546 2.7744C12.6494 1.848 14.0402 1.1124 15.575 0.6888C16.5722 0.4152 17.591 0.2268 18.6002 0ZM20.7026 10.7412C17.1806 9.9 14.8394 7.9116 13.6046 4.5624C14.1434 4.386 14.6042 4.2348 15.0614 4.0848C16.2266 7.0092 18.2858 8.7216 21.3302 9.228C22.175 7.458 22.6454 4.638 22.3298 3.246C21.8558 3.2112 21.3674 3.1752 20.8502 3.138C20.819 2.61 20.7902 2.1372 20.7638 1.6764C18.767 1.1904 14.8514 2.118 12.5906 3.8592C8.64622 6.8952 6.59662 10.8288 7.44622 16.0188C5.53222 15.396 3.72742 15.4764 1.80862 16.4292C3.40942 16.7076 4.81102 17.0184 5.89222 18.0888C6.98782 19.1748 7.29262 20.5992 7.56742 22.1544C8.12662 21.2088 8.35102 20.2896 8.35942 19.3548C8.36902 18.4344 8.20942 17.5116 8.12182 16.5768C13.5554 17.4408 17.4866 15.0012 20.7038 10.74L20.7026 10.7412ZM15.6686 17.1792C16.0022 17.3892 16.3022 17.6136 16.6346 17.7708C16.7858 17.8428 17.0762 17.8608 17.1722 17.7684C17.8898 17.0748 18.377 16.2288 18.8174 15.1992C17.7062 15.8976 16.7246 16.5156 15.6698 17.1792H15.6686ZM8.70622 5.328C8.67142 5.2812 8.63542 5.2344 8.60062 5.1876C7.85302 5.7 7.09222 6.1944 6.36982 6.7404C6.24142 6.8376 6.18382 7.1808 6.24742 7.3512C6.37582 7.6908 6.61222 7.9896 6.81982 8.3328C7.48222 7.2768 8.09422 6.3024 8.70502 5.328H8.70622Z" fill="#1C1B1C"/>
</g>
<defs>
<clipPath id="clip0_3027_704">
<rect width="24" height="24" fill="white"/>
</clipPath>
</defs>
</svg>
