<svg width="24" height="24" viewBox="0 0 24 24" fill="none" xmlns="http://www.w3.org/2000/svg">
<path d="M12.7202 24H11.2802C11.0546 23.928 10.829 23.856 10.6034 23.7852C8.69182 23.1792 7.38862 21.8232 6.31942 20.2212C6.00262 19.746 5.73982 19.6716 5.21902 19.842C3.80542 20.3064 2.37022 20.706 0.907423 21.1428C0.771823 20.6712 0.654224 20.2596 0.522223 19.8C2.10142 19.3188 3.63622 18.852 5.18182 18.3804C4.92502 17.7624 4.66942 17.2224 4.47982 16.6596C4.36342 16.3128 4.18582 16.2096 3.83182 16.2132C2.55502 16.2264 1.27702 16.2072 -0.000976562 16.2012V14.8812H3.88942C3.51622 13.1016 3.37102 11.4492 3.78982 9.8736C3.13822 9.5196 2.51542 9.246 1.96462 8.868C0.877424 8.1216 0.360223 6.9828 0.000223438 5.76V4.2C0.337423 2.8764 0.905024 1.6752 2.09902 0.9324C2.74342 0.5316 3.49582 0.3048 4.20022 0C4.71982 0 5.24062 0 5.76022 0C7.00222 0.3672 8.15302 0.9012 8.90422 2.01C9.27622 2.5596 9.54022 3.1836 9.78862 3.6528H14.1902C14.489 3.1176 14.7806 2.4828 15.1718 1.9176C15.9098 0.8496 17.0402 0.3576 18.2402 0H19.8002C21.125 0.3348 22.325 0.906 23.0678 2.0988C23.4686 2.7432 23.6954 3.4956 24.0002 4.2V5.76C23.9582 5.8668 23.9054 5.9712 23.8766 6.0816C23.495 7.5276 22.6562 8.6184 21.335 9.3216C20.9738 9.5136 20.5802 9.6456 20.1818 9.8136C20.6366 11.478 20.4686 13.1148 20.1242 14.8224C20.4506 14.8224 20.7026 14.8188 20.9558 14.8224C21.9698 14.8404 22.985 14.8596 23.999 14.8788V16.1988C22.721 16.206 21.443 16.2036 20.1662 16.2288C19.9778 16.2324 19.6874 16.3128 19.6238 16.4436C19.3274 17.0628 19.0946 17.712 18.8258 18.384C20.4086 18.8652 21.9458 19.3332 23.4938 19.8036C23.3426 20.2896 23.2154 20.7 23.0798 21.138C21.545 20.6796 20.0726 20.2536 18.611 19.7952C18.2354 19.6776 18.0242 19.7052 17.7866 20.0712C16.5542 21.9588 15.0014 23.4552 12.719 24H12.7202ZM12.713 22.4376C14.0498 22.2516 16.0514 20.5596 16.5698 19.23C16.4018 19.146 16.2338 19.062 16.0418 18.9672C16.187 18.5208 16.319 18.1128 16.4534 17.7012C16.8146 17.7936 17.099 17.8668 17.4362 17.9532C17.6822 17.3892 17.9162 16.8516 18.1754 16.2552C17.7134 16.23 17.3474 16.2096 16.979 16.1892V14.8236C17.4254 14.8236 17.8238 14.8092 18.221 14.8284C18.5342 14.8428 18.6974 14.7408 18.743 14.4096C18.821 13.8372 18.9662 13.2732 19.031 12.6996C19.6202 7.5012 14.1782 3.4332 9.35662 5.454C6.18742 6.7824 4.06342 10.1904 5.29462 14.4912C5.33542 14.634 5.58262 14.7912 5.74702 14.8092C6.17062 14.8536 6.60262 14.8248 7.03462 14.8248V16.1928C6.63742 16.2144 6.27142 16.2348 5.79742 16.26C6.08422 16.8576 6.27622 17.412 6.61222 17.8596C6.70582 17.9844 7.22062 17.7936 7.57942 17.742C7.70662 18.1764 7.82662 18.5892 7.94782 19.0044C7.72942 19.0968 7.56742 19.1652 7.34422 19.2588C8.35462 20.7084 9.45382 21.9768 11.2886 22.5132C11.2886 21.906 11.231 21.3816 11.3006 20.8752C11.4566 19.7292 11.0906 18.918 10.0802 18.2892C9.23062 17.76 8.98462 16.6548 9.30382 15.66C9.59782 14.7456 10.4114 14.1648 11.4446 14.1384C11.7638 14.13 12.0842 14.1336 12.4034 14.136C13.5686 14.1468 14.4062 14.7096 14.7098 15.6828C15.0374 16.734 14.6882 17.7444 13.7714 18.4344C13.4846 18.6504 13.2026 18.8772 12.9482 19.128C12.833 19.242 12.7274 19.4268 12.725 19.5816C12.7046 20.5188 12.7154 21.4572 12.7154 22.4388L12.713 22.4376ZM4.29382 8.3844C5.70502 6.1848 6.44422 5.3532 7.89382 4.6164C8.42302 4.3476 8.39902 4.0812 8.22382 3.6396C7.61182 2.0952 5.96662 1.1724 4.30582 1.4652C2.66902 1.7544 1.44022 3.2124 1.42462 4.884C1.40902 6.636 2.52982 8.0196 4.29262 8.3844H4.29382ZM22.5746 4.9368C22.5722 3.204 21.3062 1.7088 19.6274 1.4556C17.8754 1.1916 16.199 2.2284 15.6986 3.8724C15.6146 4.1472 15.5774 4.3296 15.9038 4.4964C17.4746 5.304 18.6734 6.5028 19.4894 8.07C19.6442 8.3676 19.799 8.4 20.1014 8.3112C21.5498 7.8864 22.577 6.5028 22.5746 4.9368ZM12.0026 18.0192C12.395 17.7132 12.8066 17.4948 13.0646 17.1588C13.2662 16.896 13.4258 16.4376 13.331 16.158C13.2386 15.8832 12.827 15.648 12.5078 15.5388C12.2042 15.4344 11.8118 15.4368 11.5058 15.5388C11.183 15.6456 10.7498 15.8772 10.673 16.1424C10.5866 16.446 10.7558 16.9104 10.967 17.19C11.2202 17.5248 11.6342 17.7372 12.0014 18.0204L12.0026 18.0192Z" fill="#1C1B1C"/>
</svg>
