<svg width="24" height="24" viewBox="0 0 24 24" fill="none" xmlns="http://www.w3.org/2000/svg">
<g clip-path="url(#clip0_3027_728)">
<path d="M22.1917 24H1.80851C0.445739 23.4924 -0.0352392 22.584 0.0014456 21.2916C0.0734565 18.7536 0.0204673 16.2144 0.0231847 13.6752C0.0259021 12.114 0.971554 11.292 2.75824 11.2872C3.29221 11.286 3.82482 11.2872 4.39819 11.2872C4.39819 10.6044 4.39275 10.0068 4.39954 9.40922C4.4077 8.72162 4.64547 8.49602 5.39954 8.49002C6.59927 8.48042 7.799 8.48042 8.99873 8.49002C9.74465 8.49602 9.97155 8.69762 9.98107 9.35042C9.99194 9.98282 9.98378 10.6164 9.98378 11.2524H11.193C11.193 10.3224 11.1808 9.42722 11.1957 8.53202C11.2175 7.26602 12.208 6.39002 13.6305 6.35642C13.871 6.35042 14.1115 6.33842 14.4145 6.32642C14.4145 5.65922 14.4077 5.04362 14.4158 4.42802C14.4254 3.75842 14.6726 3.54002 15.4362 3.52082C15.8588 3.51002 16.2827 3.51842 16.7229 3.51842V1.46642H12.8384C12.8235 1.56722 12.8099 1.62602 12.8072 1.68602C12.7827 2.15762 12.5055 2.47682 11.9756 2.45882C11.4063 2.43962 11.2202 2.07482 11.1794 1.58762C11.1197 0.860421 11.4702 0.367221 12.1332 0.0012207H21.5096C21.8411 0.270021 22.1754 0.622821 21.8737 0.973221C21.6618 1.21922 21.1822 1.37402 20.8058 1.40522C20.0286 1.47002 19.2392 1.42442 18.424 1.42442V3.51842C18.8561 3.51842 19.2569 3.51362 19.6563 3.51842C20.5313 3.53162 20.7963 3.76082 20.8044 4.51922C20.8112 5.11202 20.8044 5.70602 20.8044 6.31202C20.9675 6.33242 21.0531 6.34922 21.1387 6.35282C23.212 6.42842 23.9716 7.12202 23.9716 8.94482C23.9716 13.0608 23.9322 17.1768 23.9947 21.2916C24.015 22.5876 23.5422 23.4876 22.1862 23.9988L22.1917 24ZM14.4145 22.536C14.4023 22.5312 14.443 22.5612 14.4838 22.5612C16.8384 22.5672 19.193 22.5744 21.5476 22.5708C22.1536 22.5708 22.3724 22.236 22.3724 21.7452C22.3724 17.3652 22.3764 12.9864 22.3683 8.60762C22.3683 7.98722 22.1237 7.78562 21.4145 7.78322C18.8561 7.77602 16.2963 7.78322 13.7379 7.77962C13.1264 7.77962 12.8072 8.02682 12.8072 8.57402C12.8072 9.39362 12.7827 10.2144 12.8235 11.0328C12.833 11.2188 13.0191 11.4588 13.2039 11.568C13.9851 12.0264 14.405 12.6564 14.4077 13.4724C14.4213 16.4868 14.4131 19.5012 14.4131 22.536H14.4145ZM1.60199 17.64C1.60199 18.9588 1.5952 20.2788 1.60471 21.5976C1.61014 22.3608 1.84791 22.5732 2.68351 22.5744C5.69438 22.578 8.70525 22.578 11.7148 22.5744C12.5599 22.5744 12.8031 22.3572 12.8044 21.6108C12.8085 18.972 12.8085 16.3332 12.8044 13.6944C12.8044 12.9384 12.5612 12.7152 11.7297 12.714C8.71884 12.7104 5.70797 12.7104 2.69846 12.714C1.85878 12.714 1.61014 12.93 1.60471 13.6824C1.5952 15.0012 1.60199 16.3212 1.60199 17.64ZM19.1604 4.96682H16.0178V6.31922H19.1604V4.96682ZM6.04764 9.89282V11.2452H8.33704V9.89282H6.04764Z" fill="#1C1B1C"/>
</g>
<defs>
<clipPath id="clip0_3027_728">
<rect width="24" height="24" fill="white"/>
</clipPath>
</defs>
</svg>
