<svg width="24" height="24" viewBox="0 0 24 24" fill="none" xmlns="http://www.w3.org/2000/svg">
<g clip-path="url(#clip0_3027_676)">
<path d="M0 6.72C0 5.9604 0 5.1996 0 4.44C0.0384 4.2888 0.0864 4.1388 0.1152 3.9864C0.39 2.5596 0.7452 1.1664 1.68 0C1.8804 0 2.0796 0 2.28 0C2.4348 0.3516 2.6484 0.69 2.7324 1.0584C3.0744 2.5464 3.8856 3.6396 5.2884 4.3224C6.9396 2.3796 9.0108 1.1736 11.4168 0.5316C12.24 0.312 13.0848 0.1752 13.92 0C14.6796 0 15.4404 0 16.2 0C16.3284 0.0408 16.4532 0.0948 16.584 0.1212C18.7176 0.552 20.1312 1.7376 20.628 3.9192C20.6784 4.1412 20.8908 4.3344 21.0516 4.5228C21.732 5.3196 22.5348 6.0408 23.0736 6.9228C23.5368 7.6812 23.7036 8.6208 24.0012 9.48V11.4C23.964 11.4888 23.91 11.574 23.8944 11.6664C23.6088 13.2468 22.8816 14.592 21.7428 15.72C20.682 16.77 20.3028 16.6764 19.9308 15.2772C19.05 15.456 18.1704 15.636 17.2536 15.8232C18.4692 18.024 18.9072 20.3904 18.8352 22.86C18.8244 23.244 18.6036 23.6208 18.4812 24.0012H0C0 23.6784 0 23.3592 0 23.04C0.354 22.1352 0.7536 21.2448 1.0536 20.322C1.866 17.8212 2.1324 15.2196 2.3652 12.618C2.3832 12.4128 2.2404 12.1788 2.1348 11.9772C1.6296 11.01 1.0452 10.0776 0.6216 9.0768C0.3096 8.3352 0.2004 7.5084 0 6.72ZM17.4564 22.5468C17.4024 20.43 17.0916 18.456 16.0812 16.644C15.7044 15.9672 15.2796 15.3612 14.4216 15.24C14.1912 15.2076 13.92 15.1296 13.764 14.9748C13.5324 14.7456 13.2228 14.4252 13.23 14.1528C13.3104 11.2788 14.052 8.6004 16.0596 6.4596C16.944 5.5152 18.066 4.7928 19.158 3.906C18.9648 2.9904 18.342 2.2296 17.334 1.8156C15.7836 1.1772 14.1912 1.368 12.6144 1.6932C9.2388 2.3892 6.6012 4.1076 5.052 7.278C4.1304 9.1644 3.912 11.2164 3.7212 13.2672C3.4704 15.9564 3.1176 18.624 2.2548 21.1992C2.1072 21.6408 1.9524 22.08 1.7916 22.5468H17.454H17.4564ZM15.864 9.1572C17.0256 9.7944 18.1752 10.3164 19.2036 11.0184C20.2656 11.7432 20.8512 12.882 21.2436 14.1312C23.4252 11.6136 22.8348 7.3776 20.0892 5.568C19.9596 5.4828 19.7064 5.4684 19.566 5.5344C17.9076 6.3264 16.68 7.5612 15.8628 9.1572H15.864ZM15.1728 10.5468C14.994 11.5752 14.808 12.5688 14.6652 13.5672C14.6496 13.6764 14.8596 13.8864 15.006 13.9404C16.0788 14.34 17.19 14.4072 18.3096 14.196C18.744 14.1144 19.1628 13.9536 19.6044 13.824C18.7704 11.8224 16.9944 11.2752 15.1728 10.5456V10.5468ZM1.7952 3.072C1.044 4.716 1.3728 8.5212 2.6004 9.9672C3.1416 8.508 3.7056 6.9912 4.242 5.5464C3.45 4.746 2.6076 3.8928 1.7964 3.072H1.7952Z" fill="#1C1B1C"/>
</g>
<defs>
<clipPath id="clip0_3027_676">
<rect width="24" height="24" fill="white"/>
</clipPath>
</defs>
</svg>
