<svg width="24" height="24" viewBox="0 0 24 24" fill="none" xmlns="http://www.w3.org/2000/svg">
<g clip-path="url(#clip0_3027_717)">
<path d="M23.9988 5.27083V11.5062C23.6904 12.1372 23.1024 12.1061 22.4844 12.1148C22.4844 12.4066 22.4844 12.651 22.4844 12.8955C22.4844 16.2002 22.4868 19.505 22.4832 22.8097C22.4832 23.765 22.26 23.9969 21.3552 23.9982C15.1356 23.9994 8.916 23.9994 2.6964 23.9982C1.7616 23.9982 1.5444 23.7662 1.5444 22.7748C1.5432 19.4488 1.5444 16.1241 1.5444 12.7982C1.5444 12.5787 1.5444 12.3605 1.5444 12.1135C0.8988 12.1086 0.3144 12.1397 0 11.5062V5.39553C0.246 4.91915 0.6348 4.7508 1.1436 4.77449C1.6428 4.79819 2.1432 4.77948 2.6424 4.77948C3.2868 4.77948 3.93 4.77948 4.6236 4.77948C4.5432 4.51759 4.4904 4.36296 4.4472 4.20458C3.8532 1.98353 5.3688 -0.0467099 7.5924 0.0218794C9.4056 0.0767508 10.6152 1.1642 11.58 2.63451C11.7216 2.85025 11.8548 3.07098 12.0216 3.33661C12.1824 3.06599 12.2928 2.86896 12.414 2.68065C13.2264 1.41736 14.2404 0.444639 15.7248 0.0954569C18.2448 -0.496905 20.286 1.75906 19.542 4.33303C19.5048 4.46272 19.4784 4.59741 19.4352 4.78197C20.5416 4.78197 21.6 4.80317 22.6572 4.77324C23.184 4.75828 23.6352 4.86303 23.9988 5.27332V5.27083ZM20.8176 22.2473V12.131H12.8688V22.2473H20.8176ZM3.228 12.1298V22.2398H11.1384V12.1298H3.228ZM11.1552 6.54783H1.6968V10.3427H11.1552V6.54783ZM12.8628 10.3452H22.3068V6.54534H12.8628V10.3452ZM10.7292 4.76826L10.8756 4.57995C10.3416 3.87161 9.8544 3.11837 9.2604 2.46989C8.7336 1.89499 8.0148 1.65929 7.2312 1.75407C6.4776 1.84635 5.9556 2.49733 5.9724 3.30917C5.9892 4.09857 6.5076 4.73209 7.26 4.75703C8.4156 4.79569 9.5736 4.76701 10.7304 4.76701L10.7292 4.76826ZM13.2696 4.77823C14.3388 4.77823 15.3924 4.78447 16.446 4.77699C17.4516 4.7695 18.1032 4.12975 18.0636 3.20442C18.0228 2.2529 17.2836 1.65555 16.2708 1.75532C15.0444 1.87504 13.7184 3.19444 13.2684 4.77948L13.2696 4.77823Z" fill="#1C1B1C"/>
</g>
<defs>
<clipPath id="clip0_3027_717">
<rect width="24" height="24" fill="white"/>
</clipPath>
</defs>
</svg>
