<svg width="24" height="24" viewBox="0 0 24 24" fill="none" xmlns="http://www.w3.org/2000/svg">
<g clip-path="url(#clip0_3027_692)">
<path d="M24 8.72469C23.6328 10.0063 23.064 11.1751 21.828 11.8111C21.2052 12.1315 20.4948 12.3655 19.8012 12.4471C18.8736 12.5563 17.9244 12.4783 16.9848 12.4855C16.4904 12.4891 16.1712 12.2731 16.1328 11.7631C16.0992 11.3131 16.4556 11.0071 17.0076 10.9999C17.8476 10.9891 18.6876 11.0083 19.5276 10.9927C20.8548 10.9675 21.9432 10.1419 22.368 8.88549C22.4916 8.51949 22.4448 8.26149 22.1304 7.99749C21.0576 7.09989 20.0112 6.16989 18.948 5.26029C18.3204 4.72389 17.88 4.77789 17.3964 5.42589C16.998 5.95989 16.5948 5.99829 16.0884 5.55069C12.5976 2.47149 7.926 2.88549 4.9908 6.49389C2.8368 9.14229 1.6068 12.1207 1.5096 15.5503C1.4124 18.9883 3.9972 21.5323 7.4364 21.3955C8.4516 21.3547 9.4284 21.2467 10.2732 20.6131C11.3868 19.7779 11.6604 18.4099 10.9116 17.4019C10.5324 16.8907 10.0464 16.7683 9.624 17.0767C9.2364 17.3599 9.1884 17.8579 9.5352 18.3451C9.8268 18.7543 9.828 19.1311 9.4488 19.4599C9.1044 19.7587 8.6592 19.6507 8.3028 19.2199C7.5444 18.3031 7.6332 16.9051 8.5044 16.0567C9.3804 15.2047 10.7868 15.1999 11.712 16.0471C13.4532 17.6407 13.1652 20.4955 11.046 21.8899C8.9796 23.2495 6.7116 23.2159 4.4856 22.3975C2.1168 21.5263 0.7176 19.7227 0.1344 17.2783C0.0936 17.1067 0.0456 16.9363 0 16.7659C0 16.0051 0 15.2455 0 14.4847C0.0288 14.4103 0.0756 14.3383 0.084 14.2627C0.4512 10.8127 1.8852 7.85229 4.098 5.20869C6.7236 2.07549 11.25 1.07949 14.9076 2.92389C15.5076 3.22629 16.068 3.60549 16.6452 3.94989C17.9892 3.13269 18.8724 3.20829 20.0688 4.24269C21.3792 5.37669 22.6896 6.51069 24 7.64469V8.72469Z" fill="#1C1B1C"/>
<path d="M8.12779 12.1532C6.41059 12.2108 4.96459 13.2464 4.44859 14.816C4.17499 15.6488 3.99739 16.5128 3.77179 17.3612C3.61099 17.9648 3.28459 18.206 2.80819 18.0884C2.35699 17.978 2.17819 17.576 2.32219 16.9724C2.47459 16.3316 2.63179 15.692 2.79859 15.0548C3.49699 12.392 5.24539 10.9412 8.04379 10.586C8.00299 9.98717 7.98139 9.37517 7.90699 8.77037C7.89019 8.63237 7.70419 8.43197 7.57459 8.41277C7.41499 8.38877 7.16659 8.47637 7.06939 8.60237C6.80419 8.94917 6.60259 9.34397 6.36859 9.71597C6.04699 10.2272 5.62459 10.376 5.22619 10.1264C4.85179 9.89237 4.78939 9.45197 5.07139 8.96357C5.28139 8.60117 5.49619 8.23997 5.71939 7.88597C6.22819 7.07837 7.03459 6.73157 7.92259 6.92717C8.75659 7.11077 9.36979 7.82597 9.44419 8.78597C9.54739 10.1012 9.60859 11.4188 9.69139 12.7352C9.70099 12.89 9.72979 13.0436 9.75739 13.2572C10.2542 13.2572 10.7294 13.25 11.2058 13.2596C11.675 13.268 11.9822 13.5104 11.987 13.9832C11.9918 14.4872 11.6774 14.7356 11.1758 14.7368C10.4762 14.7368 9.77659 14.738 9.07819 14.7368C8.57539 14.7356 8.29819 14.4872 8.26099 13.9808C8.21779 13.3856 8.17579 12.7904 8.13019 12.1532H8.12779Z" fill="#1C1B1C"/>
<path d="M13.5301 12.1089C12.6913 12.1089 11.8969 12.1125 11.1025 12.1089C10.4809 12.1053 10.1377 11.8461 10.1281 11.3865C10.1185 10.9077 10.4773 10.6317 11.1301 10.6293C12.0289 10.6257 12.9277 10.6041 13.8253 10.6389C14.2357 10.6545 14.4493 10.5057 14.5945 10.1469C14.7205 9.83371 14.8729 9.52771 15.0421 9.23491C15.2749 8.83051 15.6073 8.58451 16.0801 8.84011C16.5313 9.08371 16.5865 9.48451 16.3753 9.91891C15.9817 10.7265 15.5701 11.5233 15.1729 12.3285C14.8513 12.9801 15.0181 13.2465 15.7609 13.2513C16.9393 13.2597 18.1165 13.2489 19.2949 13.2561C19.9009 13.2597 20.2501 13.5417 20.2513 14.0013C20.2513 14.4597 19.8997 14.7333 19.2877 14.7357C18.0901 14.7405 16.8913 14.7393 15.6937 14.7357C14.2057 14.7321 13.4269 13.8741 13.5445 12.3777C13.5493 12.3189 13.5397 12.2589 13.5313 12.1077L13.5301 12.1089Z" fill="#1C1B1C"/>
</g>
<defs>
<clipPath id="clip0_3027_692">
<rect width="24" height="20.9724" fill="white" transform="translate(0 2)"/>
</clipPath>
</defs>
</svg>
