<svg width="173" height="133" viewBox="0 0 173 133" fill="none" xmlns="http://www.w3.org/2000/svg">
<path d="M141.405 129.66V130.16H141.905H171.065H171.565V129.66V3.65991V3.15991H171.065H116.705H116.205V3.65991V27.0599V27.5599H116.705H141.405V129.66Z" fill="#7BC2FE" stroke="#7BC2FE"/>
<path d="M27.0128 124.683L27.0173 124.685C35.2622 129.778 44.5945 132.32 55 132.32C65.5242 132.32 74.8581 129.778 82.9856 124.684L82.9872 124.683C91.2354 119.467 97.7148 111.951 102.431 102.157C107.151 92.3531 109.5 80.5148 109.5 66.66C109.5 52.8052 107.151 40.9669 102.431 31.1631C97.7151 21.3695 91.2356 13.9129 82.9863 8.81676C74.8591 3.60191 65.5249 1 55 1C44.5931 1 35.26 3.60286 27.015 8.81601C18.765 13.9122 12.2851 21.3691 7.5695 31.1631C2.84914 40.9669 0.5 52.8052 0.5 66.66C0.5 80.5148 2.84914 92.3531 7.5695 102.157C12.2852 111.951 18.7646 119.467 27.0128 124.683ZM67.482 102.618L67.4758 102.623C63.9706 105.311 59.8199 106.66 55 106.66C50.3045 106.66 46.1509 105.313 42.5211 102.621C39.0244 99.9387 36.1913 95.6557 34.0519 89.7148C32.037 83.7861 31.02 76.1074 31.02 66.66C31.02 57.2127 32.0369 49.5339 34.0519 43.6053C36.1912 37.6643 39.0243 33.3813 42.5211 30.6992C46.1509 28.0071 50.3045 26.66 55 26.66C59.8199 26.66 63.9706 28.0095 67.4758 30.6968L67.4758 30.6968L67.4821 30.7015C71.0955 33.3824 73.9276 37.6626 75.9466 43.6009L75.9465 43.601L75.9496 43.6094C78.0829 49.5354 79.16 57.2124 79.16 66.66C79.16 76.1076 78.0829 83.7846 75.9496 89.7106L75.9495 89.7106L75.9466 89.7191C73.9276 95.6574 71.0955 99.9376 67.4821 102.618L67.482 102.618Z" fill="#7BC2FE" stroke="#7BC2FE"/>
</svg>
