<svg width="218" height="133" viewBox="0 0 218 133" fill="none" xmlns="http://www.w3.org/2000/svg">
<path d="M120.885 129.66V129.16V110.26V110.044L121.042 109.896L169.641 63.9965L169.649 63.9894L169.649 63.9895C173.473 60.5239 176.259 57.4366 178.026 54.7269C179.807 51.9953 180.979 49.5249 181.561 47.3128L181.564 47.301L181.568 47.2894C182.276 45.0467 182.625 42.9982 182.625 41.14C182.625 36.2291 180.938 32.5484 177.603 30.0183L177.595 30.0125L177.587 30.0064C174.353 27.3495 169.506 25.98 162.965 25.98C157.752 25.98 152.903 26.9864 148.411 28.9954C144.058 30.9962 140.344 34.1169 137.27 38.3727L136.993 38.757L136.594 38.5004L115.354 24.8204L114.927 24.5453L115.209 24.1227C120.063 16.8407 126.855 11.0848 135.566 6.85031C144.285 2.61191 154.322 0.5 165.665 0.5C175.078 0.5 183.308 2.06844 190.345 5.22163C197.495 8.25237 203.033 12.566 206.933 18.1714C210.961 23.7866 212.965 30.4909 212.965 38.26C212.965 42.383 212.419 46.5043 211.33 50.6229C210.351 54.6577 208.278 58.9118 205.137 63.3838C202.108 67.8647 197.641 72.8717 191.748 78.404L120.885 129.66ZM120.885 129.66H121.385H216.605H217.105V129.16V105.4V104.9H216.605H163.619L191.747 78.4045L120.885 129.66Z" fill="#7BC2FE" stroke="#7BC2FE"/>
<path d="M27.0128 124.183L27.0173 124.185C35.2622 129.278 44.5945 131.82 55 131.82C65.5242 131.82 74.8581 129.278 82.9856 124.184L82.9872 124.183C91.2354 118.967 97.7148 111.451 102.431 101.657C107.151 91.8531 109.5 80.0148 109.5 66.16C109.5 52.3052 107.151 40.4669 102.431 30.6631C97.7151 20.8695 91.2356 13.4129 82.9863 8.31676C74.8591 3.10191 65.5249 0.5 55 0.5C44.5931 0.5 35.26 3.10286 27.015 8.31601C18.765 13.4122 12.2851 20.8691 7.5695 30.6631C2.84914 40.4669 0.5 52.3052 0.5 66.16C0.5 80.0148 2.84914 91.8531 7.5695 101.657C12.2852 111.451 18.7646 118.967 27.0128 124.183ZM67.482 102.118L67.4758 102.123C63.9706 104.811 59.8199 106.16 55 106.16C50.3045 106.16 46.1509 104.813 42.5211 102.121C39.0244 99.4387 36.1913 95.1557 34.0519 89.2148C32.037 83.2861 31.02 75.6074 31.02 66.16C31.02 56.7127 32.0369 49.0339 34.0519 43.1053C36.1912 37.1643 39.0243 32.8813 42.5211 30.1992C46.1509 27.5071 50.3045 26.16 55 26.16C59.8199 26.16 63.9706 27.5095 67.4758 30.1968L67.4758 30.1968L67.4821 30.2015C71.0955 32.8824 73.9276 37.1626 75.9466 43.1009L75.9465 43.101L75.9496 43.1094C78.0829 49.0354 79.16 56.7124 79.16 66.16C79.16 75.6076 78.0829 83.2846 75.9496 89.2106L75.9495 89.2106L75.9466 89.2191C73.9276 95.1574 71.0955 99.4376 67.4821 102.118L67.482 102.118Z" fill="#7BC2FE" stroke="#7BC2FE"/>
</svg>
