<svg width="216" height="134" viewBox="0 0 216 134" fill="none" xmlns="http://www.w3.org/2000/svg">
<path d="M55.0532 132.16C44.7332 132.16 35.4932 129.64 27.3332 124.6C19.1732 119.44 12.7532 112 8.0732 102.28C3.3932 92.56 1.0532 80.8 1.0532 67C1.0532 53.2 3.3932 41.44 8.0732 31.72C12.7532 22 19.1732 14.62 27.3332 9.57999C35.4932 4.42 44.7332 1.84 55.0532 1.84C65.4932 1.84 74.7332 4.42 82.7732 9.57999C90.9332 14.62 97.3532 22 102.033 31.72C106.713 41.44 109.053 53.2 109.053 67C109.053 80.8 106.713 92.56 102.033 102.28C97.3532 112 90.9332 119.44 82.7732 124.6C74.7332 129.64 65.4932 132.16 55.0532 132.16ZM55.0532 107.5C59.9732 107.5 64.2332 106.12 67.8332 103.36C71.5532 100.6 74.4332 96.22 76.4732 90.22C78.6332 84.22 79.7132 76.48 79.7132 67C79.7132 57.52 78.6332 49.78 76.4732 43.78C74.4332 37.78 71.5532 33.4 67.8332 30.64C64.2332 27.88 59.9732 26.5 55.0532 26.5C50.2532 26.5 45.9932 27.88 42.2732 30.64C38.6732 33.4 35.7932 37.78 33.6332 43.78C31.5932 49.78 30.5732 57.52 30.5732 67C30.5732 76.48 31.5932 84.22 33.6332 90.22C35.7932 96.22 38.6732 100.6 42.2732 103.36C45.9932 106.12 50.2532 107.5 55.0532 107.5ZM162.323 132.16C153.563 132.16 144.863 131.02 136.223 128.74C127.583 126.34 120.263 122.98 114.263 118.66L125.603 96.34C130.403 99.82 135.983 102.58 142.343 104.62C148.703 106.66 155.123 107.68 161.603 107.68C168.923 107.68 174.683 106.24 178.883 103.36C183.083 100.48 185.183 96.52 185.183 91.48C185.183 86.68 183.323 82.9 179.603 80.14C175.883 77.38 169.883 76 161.603 76H148.283V56.74L183.383 16.96L186.623 27.4H120.563V3.99999H208.763V22.9L173.843 62.68L159.083 54.22H167.543C183.023 54.22 194.723 57.7 202.643 64.66C210.563 71.62 214.523 80.56 214.523 91.48C214.523 98.56 212.663 105.22 208.943 111.46C205.223 117.58 199.523 122.56 191.843 126.4C184.163 130.24 174.323 132.16 162.323 132.16Z" fill="#7BC2FE"/>
<path d="M27.3332 124.6L26.7987 125.445L26.8077 125.451L27.3332 124.6ZM8.0732 102.28L7.1722 102.714L8.0732 102.28ZM8.0732 31.72L8.97421 32.1538L8.0732 31.72ZM27.3332 9.57999L27.8587 10.4308L27.8677 10.4252L27.3332 9.57999ZM82.7732 9.57999L82.2331 10.4216L82.2404 10.4263L82.2477 10.4308L82.7732 9.57999ZM102.033 31.72L101.132 32.1538L102.033 31.72ZM102.033 102.28L101.132 101.846L102.033 102.28ZM82.7732 124.6L83.3043 125.447L83.3077 125.445L82.7732 124.6ZM67.8332 103.36L67.2374 102.557L67.231 102.562L67.2248 102.566L67.8332 103.36ZM76.4732 90.22L75.5323 89.8813L75.5293 89.8897L75.5264 89.8981L76.4732 90.22ZM76.4732 43.78L75.5264 44.1019L75.5293 44.1103L75.5323 44.1187L76.4732 43.78ZM67.8332 30.64L67.2248 31.4336L67.231 31.4384L67.2374 31.4431L67.8332 30.64ZM42.2732 30.64L41.6774 29.8369L41.671 29.8416L41.6648 29.8464L42.2732 30.64ZM33.6332 43.78L32.6923 43.4413L32.6893 43.4497L32.6864 43.4581L33.6332 43.78ZM33.6332 90.22L32.6864 90.5419L32.6893 90.5503L32.6923 90.5587L33.6332 90.22ZM42.2732 103.36L41.6648 104.154L41.671 104.158L41.6774 104.163L42.2732 103.36ZM55.0532 131.16C44.9042 131.16 35.8487 128.684 27.8587 123.749L26.8077 125.451C35.1377 130.596 44.5623 133.16 55.0532 133.16V131.16ZM27.8677 123.755C19.8841 118.706 13.5828 111.418 8.97421 101.846L7.1722 102.714C11.9236 112.582 18.4623 120.174 26.7987 125.445L27.8677 123.755ZM8.97421 101.846C4.37493 92.2938 2.0532 80.6903 2.0532 67H0.0532031C0.0532031 80.9096 2.41148 92.8262 7.1722 102.714L8.97421 101.846ZM2.0532 67C2.0532 53.3096 4.37493 41.7062 8.97421 32.1538L7.1722 31.2862C2.41148 41.1738 0.0532031 53.0903 0.0532031 67H2.0532ZM8.97421 32.1538C13.582 22.5837 19.8808 15.3583 27.8587 10.4308L26.8077 8.7292C18.4656 13.8817 11.9244 21.4163 7.1722 31.2862L8.97421 32.1538ZM27.8677 10.4252C35.8566 5.37336 44.9088 2.84 55.0532 2.84V0.839996C44.5576 0.839996 35.1298 3.46664 26.7987 8.7348L27.8677 10.4252ZM55.0532 2.84C65.3202 2.84 74.3691 5.37456 82.2331 10.4216L83.3133 8.73841C75.0973 3.46544 65.6662 0.839996 55.0532 0.839996V2.84ZM82.2477 10.4308C90.2256 15.3583 96.5244 22.5837 101.132 32.1538L102.934 31.2862C98.1821 21.4163 91.6408 13.8817 83.2987 8.7292L82.2477 10.4308ZM101.132 32.1538C105.731 41.7062 108.053 53.3096 108.053 67H110.053C110.053 53.0903 107.695 41.1738 102.934 31.2862L101.132 32.1538ZM108.053 67C108.053 80.6903 105.731 92.2938 101.132 101.846L102.934 102.714C107.695 92.8262 110.053 80.9096 110.053 67H108.053ZM101.132 101.846C96.5236 111.418 90.2224 118.706 82.2387 123.755L83.3077 125.445C91.6441 120.174 98.1828 112.582 102.934 102.714L101.132 101.846ZM82.2421 123.753C74.377 128.683 65.3248 131.16 55.0532 131.16V133.16C65.6616 133.16 75.0894 130.597 83.3043 125.447L82.2421 123.753ZM55.0532 108.5C60.1734 108.5 64.652 107.059 68.4416 104.154L67.2248 102.566C63.8144 105.181 59.773 106.5 55.0532 106.5V108.5ZM68.4291 104.163C72.3623 101.245 75.3381 96.6652 77.42 90.5419L75.5264 89.8981C73.5284 95.7748 70.7441 99.9551 67.2374 102.557L68.4291 104.163ZM77.4141 90.5587C79.6273 84.4109 80.7132 76.5448 80.7132 67H78.7132C78.7132 76.4152 77.6391 84.0291 75.5323 89.8813L77.4141 90.5587ZM80.7132 67C80.7132 57.4552 79.6273 49.5891 77.4141 43.4413L75.5323 44.1187C77.6391 49.9709 78.7132 57.5848 78.7132 67H80.7132ZM77.42 43.4581C75.3381 37.3348 72.3623 32.7551 68.4291 29.8369L67.2374 31.4431C70.7441 34.0449 73.5284 38.2252 75.5264 44.1019L77.42 43.4581ZM68.4416 29.8464C64.652 26.941 60.1734 25.5 55.0532 25.5V27.5C59.773 27.5 63.8144 28.819 67.2248 31.4336L68.4416 29.8464ZM55.0532 25.5C50.0469 25.5 45.5763 26.9441 41.6774 29.8369L42.8691 31.4431C46.4101 28.8158 50.4595 27.5 55.0532 27.5V25.5ZM41.6648 29.8464C37.8627 32.7613 34.892 37.331 32.6923 43.4413L34.5741 44.1187C36.6944 38.229 39.4837 34.0387 42.8816 31.4336L41.6648 29.8464ZM32.6864 43.4581C30.5983 49.5996 29.5732 57.4593 29.5732 67H31.5732C31.5732 57.5807 32.5881 49.9604 34.58 44.1019L32.6864 43.4581ZM29.5732 67C29.5732 76.5407 30.5983 84.4004 32.6864 90.5419L34.58 89.8981C32.5881 84.0396 31.5732 76.4193 31.5732 67H29.5732ZM32.6923 90.5587C34.892 96.669 37.8627 101.239 41.6648 104.154L42.8816 102.566C39.4837 99.9613 36.6944 95.771 34.5741 89.8813L32.6923 90.5587ZM41.6774 104.163C45.5763 107.056 50.0469 108.5 55.0532 108.5V106.5C50.4595 106.5 46.4101 105.184 42.8691 102.557L41.6774 104.163ZM136.223 128.74L135.956 129.704L135.968 129.707L136.223 128.74ZM114.263 118.66L113.372 118.207L112.984 118.971L113.679 119.472L114.263 118.66ZM125.603 96.34L126.19 95.5304L125.242 94.843L124.712 95.887L125.603 96.34ZM142.343 104.62L142.038 105.572L142.343 104.62ZM178.883 103.36L179.449 104.185L178.883 103.36ZM148.283 76H147.283V77H148.283V76ZM148.283 56.74L147.534 56.0784L147.283 56.3619V56.74H148.283ZM183.383 16.96L184.338 16.6636L183.811 14.964L182.634 16.2984L183.383 16.96ZM186.623 27.4V28.4H187.981L187.578 27.1036L186.623 27.4ZM120.563 27.4H119.563V28.4H120.563V27.4ZM120.563 3.99999V2.99999H119.563V3.99999H120.563ZM208.763 3.99999H209.763V2.99999H208.763V3.99999ZM208.763 22.9L209.515 23.5597L209.763 23.2766V22.9H208.763ZM173.843 62.68L173.346 63.5476L174.055 63.9542L174.595 63.3397L173.843 62.68ZM159.083 54.22V53.22H155.328L158.586 55.0876L159.083 54.22ZM202.643 64.66L201.983 65.4112L202.643 64.66ZM208.943 111.46L209.798 111.979L209.802 111.972L208.943 111.46ZM191.843 126.4L191.396 125.506L191.843 126.4ZM162.323 131.16C153.651 131.16 145.037 130.032 136.479 127.773L135.968 129.707C144.69 132.008 153.476 133.16 162.323 133.16V131.16ZM136.491 127.776C127.941 125.402 120.734 122.087 114.848 117.848L113.679 119.472C119.793 123.873 127.225 127.278 135.956 129.704L136.491 127.776ZM115.155 119.113L126.495 96.793L124.712 95.887L113.372 118.207L115.155 119.113ZM125.016 97.1496C129.912 100.699 135.59 103.504 142.038 105.572L142.649 103.668C136.377 101.656 130.895 98.9409 126.19 95.5304L125.016 97.1496ZM142.038 105.572C148.494 107.643 155.017 108.68 161.603 108.68V106.68C155.23 106.68 148.913 105.677 142.649 103.668L142.038 105.572ZM161.603 108.68C169.041 108.68 175.024 107.219 179.449 104.185L178.318 102.535C174.343 105.261 168.806 106.68 161.603 106.68V108.68ZM179.449 104.185C183.917 101.121 186.183 96.8538 186.183 91.48H184.183C184.183 96.1862 182.249 99.8394 178.318 102.535L179.449 104.185ZM186.183 91.48C186.183 86.3769 184.184 82.2934 180.199 79.3369L179.008 80.9431C182.463 83.5066 184.183 86.9831 184.183 91.48H186.183ZM180.199 79.3369C176.217 76.3822 169.949 75 161.603 75V77C169.818 77 175.55 78.3778 179.008 80.9431L180.199 79.3369ZM161.603 75H148.283V77H161.603V75ZM149.283 76V56.74H147.283V76H149.283ZM149.033 57.4016L184.133 17.6216L182.634 16.2984L147.534 56.0784L149.033 57.4016ZM182.428 17.2564L185.668 27.6964L187.578 27.1036L184.338 16.6636L182.428 17.2564ZM186.623 26.4H120.563V28.4H186.623V26.4ZM121.563 27.4V3.99999H119.563V27.4H121.563ZM120.563 4.99999H208.763V2.99999H120.563V4.99999ZM207.763 3.99999V22.9H209.763V3.99999H207.763ZM208.012 22.2403L173.092 62.0203L174.595 63.3397L209.515 23.5597L208.012 22.2403ZM174.341 61.8124L159.581 53.3524L158.586 55.0876L173.346 63.5476L174.341 61.8124ZM159.083 55.22H167.543V53.22H159.083V55.22ZM167.543 55.22C182.892 55.22 194.315 58.6723 201.983 65.4112L203.303 63.9088C195.132 56.7277 183.155 53.22 167.543 53.22V55.22ZM201.983 65.4112C209.679 72.1737 213.523 80.8359 213.523 91.48H215.523C215.523 80.2841 211.448 71.0663 203.303 63.9088L201.983 65.4112ZM213.523 91.48C213.523 98.3748 211.715 104.859 208.084 110.948L209.802 111.972C213.612 105.581 215.523 98.7451 215.523 91.48H213.523ZM208.089 110.941C204.485 116.87 198.942 121.733 191.396 125.506L192.291 127.294C200.105 123.387 205.962 118.29 209.798 111.979L208.089 110.941ZM191.396 125.506C183.899 129.254 174.226 131.16 162.323 131.16V133.16C174.421 133.16 184.428 131.226 192.291 127.294L191.396 125.506Z" fill="#7BC2FE" mask="url(#path-1-outside-1_1462_3583)"/>
</svg>
