<svg width="240" height="134" viewBox="0 0 240 134" fill="none" xmlns="http://www.w3.org/2000/svg">
<path d="M55.3852 132.16C45.0652 132.16 35.8252 129.64 27.6652 124.6C19.5052 119.44 13.0852 112 8.40523 102.28C3.72523 92.56 1.38523 80.8 1.38523 67C1.38523 53.2 3.72523 41.44 8.40523 31.72C13.0852 22 19.5052 14.62 27.6652 9.57999C35.8252 4.42 45.0652 1.84 55.3852 1.84C65.8252 1.84 75.0652 4.42 83.1052 9.57999C91.2652 14.62 97.6852 22 102.365 31.72C107.045 41.44 109.385 53.2 109.385 67C109.385 80.8 107.045 92.56 102.365 102.28C97.6852 112 91.2652 119.44 83.1052 124.6C75.0652 129.64 65.8252 132.16 55.3852 132.16ZM55.3852 107.5C60.3052 107.5 64.5652 106.12 68.1652 103.36C71.8852 100.6 74.7652 96.22 76.8052 90.22C78.9652 84.22 80.0452 76.48 80.0452 67C80.0452 57.52 78.9652 49.78 76.8052 43.78C74.7652 37.78 71.8852 33.4 68.1652 30.64C64.5652 27.88 60.3052 26.5 55.3852 26.5C50.5852 26.5 46.3252 27.88 42.6052 30.64C39.0052 33.4 36.1252 37.78 33.9652 43.78C31.9252 49.78 30.9052 57.52 30.9052 67C30.9052 76.48 31.9252 84.22 33.9652 90.22C36.1252 96.22 39.0052 100.6 42.6052 103.36C46.3252 106.12 50.5852 107.5 55.3852 107.5ZM122.113 103.54V83.92L181.513 3.99999H212.113L153.973 83.92L139.753 79.78H238.933V103.54H122.113ZM189.973 130V103.54L190.873 79.78V56.2H218.413V130H189.973Z" fill="#7BC2FE"/>
<path d="M27.6652 124.6L27.1307 125.445L27.1397 125.451L27.6652 124.6ZM8.40523 102.28L7.50423 102.714L8.40523 102.28ZM8.40523 31.72L9.30624 32.1538L8.40523 31.72ZM27.6652 9.57999L28.1908 10.4308L28.1997 10.4252L27.6652 9.57999ZM83.1052 9.57999L82.5651 10.4216L82.5724 10.4263L82.5798 10.4308L83.1052 9.57999ZM102.365 31.72L101.464 32.1538L102.365 31.72ZM102.365 102.28L101.464 101.846L102.365 102.28ZM83.1052 124.6L83.6364 125.447L83.6397 125.445L83.1052 124.6ZM68.1652 103.36L67.5694 102.557L67.5631 102.562L67.5568 102.566L68.1652 103.36ZM76.8052 90.22L75.8643 89.8813L75.8613 89.8897L75.8585 89.8981L76.8052 90.22ZM76.8052 43.78L75.8585 44.1019L75.8613 44.1103L75.8643 44.1187L76.8052 43.78ZM68.1652 30.64L67.5568 31.4336L67.5631 31.4384L67.5694 31.4431L68.1652 30.64ZM42.6052 30.64L42.0094 29.8369L42.0031 29.8416L41.9968 29.8464L42.6052 30.64ZM33.9652 43.78L33.0243 43.4413L33.0213 43.4497L33.0185 43.4581L33.9652 43.78ZM33.9652 90.22L33.0185 90.5419L33.0213 90.5503L33.0243 90.5587L33.9652 90.22ZM42.6052 103.36L41.9968 104.154L42.0031 104.158L42.0094 104.163L42.6052 103.36ZM55.3852 131.16C45.2362 131.16 36.1808 128.684 28.1907 123.749L27.1397 125.451C35.4697 130.596 44.8943 133.16 55.3852 133.16V131.16ZM28.1997 123.755C20.2161 118.706 13.9148 111.418 9.30624 101.846L7.50423 102.714C12.2557 112.582 18.7944 120.174 27.1308 125.445L28.1997 123.755ZM9.30624 101.846C4.70696 92.2938 2.38523 80.6903 2.38523 67H0.385234C0.385234 80.9096 2.74351 92.8262 7.50423 102.714L9.30624 101.846ZM2.38523 67C2.38523 53.3096 4.70696 41.7062 9.30624 32.1538L7.50423 31.2862C2.74351 41.1738 0.385234 53.0903 0.385234 67H2.38523ZM9.30624 32.1538C13.9141 22.5837 20.2128 15.3583 28.1907 10.4308L27.1397 8.7292C18.7976 13.8817 12.2564 21.4163 7.50423 31.2862L9.30624 32.1538ZM28.1997 10.4252C36.1886 5.37336 45.2408 2.84 55.3852 2.84V0.839996C44.8896 0.839996 35.4618 3.46664 27.1308 8.7348L28.1997 10.4252ZM55.3852 2.84C65.6522 2.84 74.7011 5.37456 82.5651 10.4216L83.6454 8.73841C75.4293 3.46544 65.9983 0.839996 55.3852 0.839996V2.84ZM82.5798 10.4308C90.5577 15.3583 96.8564 22.5837 101.464 32.1538L103.266 31.2862C98.5141 21.4163 91.9728 13.8817 83.6307 8.7292L82.5798 10.4308ZM101.464 32.1538C106.064 41.7062 108.385 53.3096 108.385 67H110.385C110.385 53.0903 108.027 41.1738 103.266 31.2862L101.464 32.1538ZM108.385 67C108.385 80.6903 106.064 92.2938 101.464 101.846L103.266 102.714C108.027 92.8262 110.385 80.9096 110.385 67H108.385ZM101.464 101.846C96.8557 111.418 90.5544 118.706 82.5708 123.755L83.6397 125.445C91.9761 120.174 98.5148 112.582 103.266 102.714L101.464 101.846ZM82.5741 123.753C74.709 128.683 65.6568 131.16 55.3852 131.16V133.16C65.9936 133.16 75.4214 130.597 83.6364 125.447L82.5741 123.753ZM55.3852 108.5C60.5055 108.5 64.984 107.059 68.7737 104.154L67.5568 102.566C64.1465 105.181 60.105 106.5 55.3852 106.5V108.5ZM68.7611 104.163C72.6943 101.245 75.6701 96.6652 77.752 90.5419L75.8585 89.8981C73.8604 95.7748 71.0761 99.9551 67.5694 102.557L68.7611 104.163ZM77.7461 90.5587C79.9594 84.4109 81.0452 76.5448 81.0452 67H79.0452C79.0452 76.4152 77.9711 84.0291 75.8643 89.8813L77.7461 90.5587ZM81.0452 67C81.0452 57.4552 79.9594 49.5891 77.7461 43.4413L75.8643 44.1187C77.9711 49.9709 79.0452 57.5848 79.0452 67H81.0452ZM77.752 43.4581C75.6701 37.3348 72.6943 32.7551 68.7611 29.8369L67.5694 31.4431C71.0761 34.0449 73.8604 38.2252 75.8585 44.1019L77.752 43.4581ZM68.7737 29.8464C64.984 26.941 60.5055 25.5 55.3852 25.5V27.5C60.105 27.5 64.1465 28.819 67.5568 31.4336L68.7737 29.8464ZM55.3852 25.5C50.379 25.5 45.9083 26.9441 42.0094 29.8369L43.2011 31.4431C46.7422 28.8158 50.7915 27.5 55.3852 27.5V25.5ZM41.9968 29.8464C38.1947 32.7613 35.224 37.331 33.0243 43.4413L34.9061 44.1187C37.0264 38.229 39.8157 34.0387 43.2137 31.4336L41.9968 29.8464ZM33.0185 43.4581C30.9304 49.5996 29.9052 57.4593 29.9052 67H31.9052C31.9052 57.5807 32.9201 49.9604 34.912 44.1019L33.0185 43.4581ZM29.9052 67C29.9052 76.5407 30.9304 84.4004 33.0185 90.5419L34.912 89.8981C32.9201 84.0396 31.9052 76.4193 31.9052 67H29.9052ZM33.0243 90.5587C35.224 96.669 38.1947 101.239 41.9968 104.154L43.2137 102.566C39.8157 99.9613 37.0264 95.771 34.9061 89.8813L33.0243 90.5587ZM42.0094 104.163C45.9083 107.056 50.379 108.5 55.3852 108.5V106.5C50.7915 106.5 46.7422 105.184 43.2011 102.557L42.0094 104.163ZM122.113 103.54H121.113V104.54H122.113V103.54ZM122.113 83.92L121.311 83.3235L121.113 83.5891V83.92H122.113ZM181.513 3.99999V2.99999H181.01L180.711 3.40347L181.513 3.99999ZM212.113 3.99999L212.922 4.58827L214.077 2.99999H212.113V3.99999ZM153.973 83.92L153.694 84.8801L154.368 85.0766L154.782 84.5083L153.973 83.92ZM139.753 79.78V78.78L139.474 80.7401L139.753 79.78ZM238.933 79.78H239.933V78.78H238.933V79.78ZM238.933 103.54V104.54H239.933V103.54H238.933ZM189.973 130H188.973V131H189.973V130ZM189.973 103.54L188.974 103.502L188.973 103.521V103.54H189.973ZM190.873 79.78L191.872 79.8178L191.873 79.7989V79.78H190.873ZM190.873 56.2V55.2H189.873V56.2H190.873ZM218.413 56.2H219.413V55.2H218.413V56.2ZM218.413 130V131H219.413V130H218.413ZM123.113 103.54V83.92H121.113V103.54H123.113ZM122.916 84.5165L182.316 4.59652L180.711 3.40347L121.311 83.3235L122.916 84.5165ZM181.513 4.99999H212.113V2.99999H181.513V4.99999ZM211.305 3.41171L153.165 83.3317L154.782 84.5083L212.922 4.58827L211.305 3.41171ZM154.253 82.9599L140.033 78.8199L139.474 80.7401L153.694 84.8801L154.253 82.9599ZM139.753 80.78H238.933V78.78H139.753V80.78ZM237.933 79.78V103.54H239.933V79.78H237.933ZM238.933 102.54H122.113V104.54H238.933V102.54ZM190.973 130V103.54H188.973V130H190.973ZM190.972 103.578L191.872 79.8178L189.874 79.7421L188.974 103.502L190.972 103.578ZM191.873 79.78V56.2H189.873V79.78H191.873ZM190.873 57.2H218.413V55.2H190.873V57.2ZM217.413 56.2V130H219.413V56.2H217.413ZM218.413 129H189.973V131H218.413V129Z" fill="#7BC2FE" mask="url(#path-1-outside-1_1462_3590)"/>
</svg>
