<svg width="20" height="21" viewBox="0 0 20 21" fill="none" xmlns="http://www.w3.org/2000/svg">
<path fill-rule="evenodd" clip-rule="evenodd" d="M10.7166 2.29535C10.2835 1.9971 9.71653 1.9971 9.28341 2.29535L2.14336 7.21204C1.81027 7.4414 1.60747 7.81102 1.59247 8.20791C1.54064 9.57986 1.4857 11.9824 1.63658 13.6877C1.7504 14.9741 2.05336 16.6746 2.29944 17.9256C2.41371 18.5065 2.91937 18.9283 3.52037 18.9283H6.84433C6.98594 18.9283 7.10074 18.8111 7.10074 18.6664V14.4753C7.10074 13.4626 7.90433 12.6417 8.89561 12.6417H11.4091C12.4004 12.6417 13.204 13.4626 13.204 14.4753V18.6664C13.204 18.8111 13.3188 18.9283 13.4604 18.9283H16.4796C17.0806 18.9283 17.5863 18.5065 17.7006 17.9256C17.9466 16.6746 18.2496 14.9741 18.3634 13.6877C18.5143 11.9824 18.4594 9.57986 18.4075 8.20791C18.3925 7.81102 18.1897 7.4414 17.8566 7.21204L10.7166 2.29535ZM8.42351 0.992111C9.37637 0.335963 10.6236 0.335963 11.5765 0.992111L18.7165 5.9088C19.4457 6.41092 19.9104 7.23645 19.9448 8.1473C19.9966 9.5177 20.0564 12.0119 19.8956 13.8291C19.7738 15.2066 19.4561 16.9785 19.2089 18.2352C18.9461 19.571 17.7924 20.5 16.4796 20.5H13.4604C12.4691 20.5 11.6655 19.6791 11.6655 18.6664V14.4753C11.6655 14.3306 11.5507 14.2133 11.4091 14.2133H8.89561C8.754 14.2133 8.6392 14.3306 8.6392 14.4753V18.6664C8.6392 19.6791 7.83561 20.5 6.84433 20.5H3.52037C2.20761 20.5 1.05389 19.571 0.791127 18.2352C0.543921 16.9785 0.226243 15.2066 0.104366 13.8291C-0.0564237 12.0119 0.0033809 9.5177 0.055155 8.1473C0.0895669 7.23645 0.554274 6.41092 1.28346 5.9088L8.42351 0.992111Z" fill="#1C1B1C"/>
</svg>
