<svg width="14" height="14" viewBox="0 0 14 14" fill="none" xmlns="http://www.w3.org/2000/svg">
<path d="M5 9C5 9.36819 4.70152 9.66667 4.33333 9.66667C3.96514 9.66667 3.66667 9.36819 3.66667 9C3.66667 8.63181 3.96514 8.33333 4.33333 8.33333C4.70152 8.33333 5 8.63181 5 9Z" fill="#797677"/>
<path d="M5 6.33333C5 6.70152 4.70152 7 4.33333 7C3.96514 7 3.66667 6.70152 3.66667 6.33333C3.66667 5.96514 3.96514 5.66667 4.33333 5.66667C4.70152 5.66667 5 5.96514 5 6.33333Z" fill="#797677"/>
<path d="M7.66667 9C7.66667 9.36819 7.36819 9.66667 7 9.66667C6.63181 9.66667 6.33333 9.36819 6.33333 9C6.33333 8.63181 6.63181 8.33333 7 8.33333C7.36819 8.33333 7.66667 8.63181 7.66667 9Z" fill="#797677"/>
<path d="M7.66667 6.33333C7.66667 6.70152 7.36819 7 7 7C6.63181 7 6.33333 6.70152 6.33333 6.33333C6.33333 5.96514 6.63181 5.66667 7 5.66667C7.36819 5.66667 7.66667 5.96514 7.66667 6.33333Z" fill="#797677"/>
<path d="M10.3333 6.33333C10.3333 6.70152 10.0349 7 9.66667 7C9.29848 7 9 6.70152 9 6.33333C9 5.96514 9.29848 5.66667 9.66667 5.66667C10.0349 5.66667 10.3333 5.96514 10.3333 6.33333Z" fill="#797677"/>
<path fill-rule="evenodd" clip-rule="evenodd" d="M7 2.16667C5.58888 2.16667 3.66096 2.28894 2.45767 2.37699C2.06166 2.40596 1.74963 2.71541 1.71747 3.11041C1.62466 4.2505 1.5 6.02782 1.5 7.33333C1.5 8.63885 1.62466 10.4162 1.71747 11.5563C1.74963 11.9513 2.06166 12.2607 2.45767 12.2897C3.66096 12.3777 5.58888 12.5 7 12.5C8.41112 12.5 10.339 12.3777 11.5423 12.2897C11.9383 12.2607 12.2504 11.9513 12.2825 11.5563C12.3753 10.4162 12.5 8.63885 12.5 7.33333C12.5 6.02782 12.3753 4.2505 12.2825 3.11041C12.2504 2.71541 11.9383 2.40596 11.5423 2.37699C10.339 2.28894 8.41112 2.16667 7 2.16667ZM2.38469 1.37965C3.58853 1.29157 5.54877 1.16667 7 1.16667C8.45123 1.16667 10.4115 1.29157 11.6153 1.37965C12.5022 1.44454 13.207 2.14218 13.2792 3.02927C13.3721 4.17026 13.5 5.98332 13.5 7.33333C13.5 8.68334 13.3721 10.4964 13.2792 11.6374C13.207 12.5245 12.5022 13.2221 11.6153 13.287C10.4115 13.3751 8.45124 13.5 7 13.5C5.54877 13.5 3.58853 13.3751 2.38469 13.287C1.4978 13.2221 0.792987 12.5245 0.720771 11.6374C0.627885 10.4964 0.5 8.68334 0.5 7.33333C0.5 5.98332 0.627885 4.17026 0.720771 3.02927C0.792987 2.14219 1.4978 1.44455 2.38469 1.37965Z" fill="#797677"/>
<path fill-rule="evenodd" clip-rule="evenodd" d="M5 0.5C5.27614 0.5 5.5 0.723858 5.5 1V2.66667C5.5 2.94281 5.27614 3.16667 5 3.16667C4.72386 3.16667 4.5 2.94281 4.5 2.66667V1C4.5 0.723858 4.72386 0.5 5 0.5Z" fill="#797677"/>
<path fill-rule="evenodd" clip-rule="evenodd" d="M9 0.5C9.27614 0.5 9.5 0.723858 9.5 1L9.5 2.66667C9.5 2.94281 9.27614 3.16667 9 3.16667C8.72386 3.16667 8.5 2.94281 8.5 2.66667L8.5 1C8.5 0.723858 8.72386 0.5 9 0.5Z" fill="#797677"/>
</svg>
