<svg width="20" height="20" viewBox="0 0 20 20" fill="none" xmlns="http://www.w3.org/2000/svg">
<path fill-rule="evenodd" clip-rule="evenodd" d="M3.07692 3.92648C3.07692 2.38908 4.33971 1.14278 5.89744 1.14278H10C10.4248 1.14278 10.7692 1.48268 10.7692 1.90197C10.7692 2.32126 10.4248 2.66116 10 2.66116H5.89744C5.18938 2.66116 4.61539 3.22766 4.61539 3.92648V4.93873C4.61539 5.35802 4.27099 5.69792 3.84615 5.69792C3.42132 5.69792 3.07692 5.35802 3.07692 4.93873V3.92648ZM3.84615 14.3021C4.27099 14.3021 4.61539 14.642 4.61539 15.0613V16.0735C4.61539 16.7723 5.18938 17.3388 5.89744 17.3388H10C10.4248 17.3388 10.7692 17.6788 10.7692 18.098C10.7692 18.5173 10.4248 18.8572 10 18.8572H5.89744C4.33971 18.8572 3.07692 17.6109 3.07692 16.0735V15.0613C3.07692 14.642 3.42132 14.3021 3.84615 14.3021Z" fill="#1C1B1C"/>
<path fill-rule="evenodd" clip-rule="evenodd" d="M10.7692 2.78618C10.7692 1.90491 11.6592 1.29355 12.4966 1.59962L17.6248 3.47416C18.1277 3.658 18.4615 4.13139 18.4615 4.66071V15.3393C18.4615 15.8686 18.1277 16.342 17.6248 16.5258L12.4966 18.4004C11.6592 18.7065 10.7692 18.0951 10.7692 17.2138V2.78618ZM13.0309 0.175764C11.1887 -0.497603 9.23077 0.847383 9.23077 2.78618V17.2138C9.23077 19.1526 11.1887 20.4976 13.0309 19.8242L18.1591 17.9497C19.2656 17.5452 20 16.5038 20 15.3393V4.66071C20 3.4962 19.2656 2.45475 18.1591 2.0503L13.0309 0.175764Z" fill="#1C1B1C"/>
<path fill-rule="evenodd" clip-rule="evenodd" d="M3.36444 7.43867C3.06404 7.14218 2.57699 7.14218 2.27658 7.43867L0.225302 9.46317C-0.0751008 9.75966 -0.0751008 10.2403 0.225302 10.5368L2.27658 12.5613C2.57699 12.8578 3.06404 12.8578 3.36444 12.5613C3.66484 12.2649 3.66484 11.7842 3.36444 11.4877L2.62632 10.7592H6.92308C7.34791 10.7592 7.69231 10.4193 7.69231 10C7.69231 9.58071 7.34791 9.24081 6.92308 9.24081H2.62632L3.36444 8.51232C3.66484 8.21584 3.66484 7.73515 3.36444 7.43867Z" fill="#1C1B1C"/>
</svg>
